<svg width="320" height="320" viewBox="0 0 320 320" fill="none" xmlns="http://www.w3.org/2000/svg">
<path fill-rule="evenodd" clip-rule="evenodd" d="M185.904 299.855C189.424 296.448 201.152 283.856 204.944 280.912C205.06 280.788 205.218 280.708 205.387 280.688C205.555 280.668 205.725 280.709 205.868 280.803C206.009 280.897 206.114 281.039 206.162 281.201C206.21 281.365 206.197 281.54 206.128 281.696C204.24 285.104 187.776 300.576 186.816 301.487C186.16 302.304 183.344 305.696 182.576 306.4C182.6 307.037 182.434 307.665 182.098 308.207C181.76 308.751 181.269 309.178 180.688 309.44C178.627 310.141 176.608 310.959 174.64 311.887C174.352 312.143 174.016 311.887 174.096 311.616C175.083 310.38 175.911 309.024 176.56 307.584C176.7 306.63 177.184 305.76 177.922 305.137C178.658 304.518 179.596 304.186 180.56 304.207C180.672 304 184.912 300.512 185.904 299.855ZM180.512 304.463C179.648 304.512 178.829 304.873 178.208 305.475C177.586 306.077 177.199 306.88 177.12 307.744C176.76 308.829 176.219 309.847 175.52 310.752C179.568 309.071 180.944 309.312 181.824 307.951C182.103 307.5 182.277 306.991 182.336 306.464C181.216 306.159 180.432 304.271 180.512 304.463ZM185.584 300.448C184.336 301.583 183.04 302.799 181.136 304.448C181.416 305.004 181.835 305.478 182.352 305.824L186.528 301.359C186.16 301.123 185.844 300.812 185.6 300.448H185.584ZM178.464 281.6C180.288 280.4 205.04 264.112 205.28 264.912C205.52 265.712 180.992 284.272 180.784 284.4C179.744 285.584 172.784 293.088 171.872 293.408C170.712 293.364 169.612 292.879 168.8 292.047C167.688 290.912 166.864 289.523 166.4 288C166.096 286.912 177.472 282.016 178.464 281.6ZM167.184 288.72C167.499 289.735 168.069 290.65 168.84 291.38C169.609 292.113 170.555 292.634 171.584 292.896C170.432 291.808 168 289.488 167.184 288.72ZM171.984 285.024C170.228 285.861 168.541 286.841 166.944 287.952C167.152 288.64 166.944 287.952 168.544 289.28C169.843 290.298 170.981 291.505 171.92 292.864C172.72 292.271 175.968 289.04 175.776 289.216C174.578 287.747 173.295 286.347 171.936 285.024H171.984ZM178.528 281.824C175.888 283.056 174.128 283.92 172.128 284.896C173.715 285.909 175.003 287.329 175.856 289.008C176.816 288.048 180.08 284.736 180.56 284.208C180.096 283.76 178.88 282.368 178.48 281.856L178.528 281.824ZM217.296 263.536C218.112 256.368 219.312 247.456 220.288 247.408C221.264 247.36 220.208 256.368 219.2 263.584C222.4 263.856 226.208 265.616 225.6 268.656C225.629 269.197 225.559 269.74 225.392 270.256C226.992 281.12 225.568 283.36 225.68 283.184C224.748 284.307 223.583 285.211 222.264 285.836C220.946 286.46 219.507 286.789 218.048 286.8C216.584 286.808 215.135 286.503 213.796 285.908C212.459 285.312 211.263 284.437 210.288 283.344C208.96 281.344 209.808 272.896 210.064 270.544C209.923 270.049 209.842 269.539 209.824 269.024C209.631 268.183 209.74 267.3 210.132 266.531C210.524 265.761 211.173 265.155 211.968 264.816C213.604 263.939 215.44 263.497 217.296 263.536ZM225.088 277.584C223.824 280.176 220.288 280.992 217.44 280.992C217.401 281.759 217.316 282.523 217.184 283.28C217.056 283.888 216.912 284.416 216.288 284.4C215.388 284.217 214.595 283.689 214.08 282.928C213.664 282.304 213.76 281.984 214.288 280.608C213.595 280.427 212.949 280.097 212.397 279.641C211.844 279.185 211.397 278.615 211.088 277.968C211.095 279.397 211.24 280.823 211.52 282.224C211.858 282.86 212.34 283.408 212.928 283.824C216.544 286.768 220.928 285.936 224.592 282.784C224.752 281.6 224.976 279.28 225.088 277.584ZM210.4 271.184C210.288 273.12 209.856 281.296 210.944 282.896C211.781 283.869 212.84 284.627 214.032 285.104C212.783 284.495 211.767 283.495 211.136 282.256C210.861 280.543 210.77 278.805 210.864 277.072C210.763 276.586 210.781 276.084 210.919 275.607C211.055 275.13 211.305 274.695 211.648 274.336C212.784 273.024 213.056 273.776 212.016 273.056C211.336 272.597 210.78 271.976 210.4 271.248V271.184ZM214.704 280.624C214.511 281.143 214.365 281.679 214.272 282.224C214.272 282.768 215.712 283.984 216.352 283.92C216.576 283.92 216.64 283.584 216.72 283.184C216.863 282.46 216.959 281.728 217.008 280.992C216.231 280.976 215.459 280.874 214.704 280.688V280.624ZM225.2 270.8C224.651 271.813 223.809 272.639 222.784 273.168C224.624 273.744 225.84 274.976 225.344 276.848C225.344 277.856 225.344 278.848 225.248 279.744C225.088 283.088 224.976 282.944 225.136 282.704C225.888 279.856 225.504 273.872 225.2 270.864V270.8ZM222.512 273.312C221.016 274.036 219.375 274.413 217.712 274.416C217.715 275.372 217.591 276.324 217.344 277.248C217.41 278.313 217.41 279.383 217.344 280.448C219.348 280.516 221.33 280.011 223.056 278.992C225.6 277.392 226 274.496 222.512 273.376V273.312ZM215.904 277.312C215.808 277.536 215.008 279.76 214.864 280.16C215.581 280.335 216.317 280.425 217.056 280.432C217.056 279.648 217.216 278.144 217.2 277.36C216.773 277.453 216.333 277.459 215.904 277.376V277.312ZM212.912 273.6C209.84 275.712 211.136 279.072 214.512 280.096C214.848 279.248 215.376 278.064 215.76 277.248C215.804 276.292 215.911 275.341 216.08 274.4C214.987 274.316 213.915 274.045 212.912 273.6ZM216.224 274.416L216.08 277.008C216.352 277.008 217.232 277.136 217.136 277.008C217.04 276.88 217.344 275.504 217.456 274.448C217.04 274.48 216.624 274.464 216.224 274.432V274.416ZM224.928 270.176C222.08 273.744 213.472 273.792 210.528 270.176C210.839 270.977 211.352 271.687 212.016 272.232C212.68 272.779 213.474 273.145 214.32 273.296C217.968 274.288 223.456 273.488 224.928 270.192V270.176ZM218.96 265.248C218.48 268.56 218.064 271.248 217.92 272.128C220.336 272.128 223.568 271.248 224.688 269.296C224.336 266.8 221.488 265.504 218.96 265.264V265.248ZM217.104 265.248C215.783 265.313 214.504 265.732 213.4 266.461C212.297 267.191 211.411 268.202 210.832 269.392C211.856 270.992 214.432 271.872 216.416 272.064C216.496 271.184 216.752 268.528 217.104 265.264V265.248ZM217.264 263.84C215.52 263.904 213.82 264.404 212.32 265.296C210.896 266.208 209.936 267.616 210.72 269.136C211.266 267.876 212.156 266.795 213.288 266.016C214.42 265.237 215.748 264.794 217.12 264.736L217.264 263.84ZM219.2 264C219.2 264.272 219.12 264.544 219.072 264.816C221.712 265.056 224.48 266.416 224.912 268.976C225.488 267.52 224.528 266.208 223.184 265.36C221.97 264.625 220.611 264.161 219.2 264ZM234.528 270.496C233.776 266.768 227.696 238.992 229.728 237.376C230.45 236.979 231.235 236.708 232.048 236.576C234.288 236.096 248.576 234.176 249.232 236.112C249.888 238.048 246.032 267.536 245.744 269.12C245.744 270.192 245.344 273.184 245.344 273.184C244.93 274.052 244.313 274.808 243.549 275.392C242.784 275.976 241.892 276.369 240.946 276.541C240 276.713 239.026 276.657 238.105 276.38C237.184 276.103 236.341 275.61 235.648 274.944C235.113 273.507 234.739 272.015 234.528 270.496ZM248.416 239.664C242.29 239.745 236.176 240.28 230.128 241.264C230.624 247.984 233.536 263.664 234.8 270.352C236.466 271.263 238.364 271.658 240.255 271.491C242.147 271.322 243.945 270.599 245.424 269.408C245.6 268.048 248.288 241.456 248.416 239.664ZM246.976 248.944C246.976 248.944 247.072 247.856 245.728 248.128C244.384 248.4 241.936 250.704 238.928 250.448C235.92 250.192 233.056 248.512 232.16 249.632C231.264 250.752 235.056 254.288 239.968 253.456C245.6 252.512 247.088 250.192 246.976 248.944ZM231.136 237.584C230.896 237.584 230.24 237.84 230.176 238.048C230.04 239.063 230.04 240.089 230.176 241.104L231.776 240.8C231.415 239.763 231.199 238.68 231.136 237.584ZM233.904 236.992C233.088 237.136 232.128 237.312 231.344 237.52C231.581 238.576 231.759 239.644 231.872 240.72C232.48 240.608 234.176 240.32 234.672 240.272C234.624 240.16 234.24 238.832 233.904 236.992ZM236.96 236.592C235.952 236.704 234.992 236.832 234.112 236.96C234.504 238.031 234.741 239.151 234.816 240.288L237.504 239.952C237.408 239.424 237.072 237.76 236.96 236.592ZM239.952 236.304C239.408 236.304 238.256 236.432 237.168 236.56C237.506 237.653 237.672 238.792 237.664 239.936L240.544 239.664C240.496 239.392 240.16 237.952 240 236.304H239.952ZM243.152 236.096L240.16 236.288C240.505 237.375 240.688 238.507 240.704 239.648C241.632 239.648 242.656 239.52 243.568 239.488C243.568 239.456 243.2 236.304 243.2 236.096H243.152ZM247.024 236.096C246.967 237.217 246.844 238.333 246.656 239.44H248.432C248.432 239.04 248.704 236.352 248.432 236.24C247.968 236.148 247.497 236.105 247.024 236.112V236.096ZM246.816 236.096H243.376C243.685 237.199 243.804 238.345 243.728 239.488H246.512C246.464 238.349 246.567 237.208 246.816 236.096ZM126.4 258.128C128.496 258.128 130.208 258.896 130.208 259.872C130.208 260.848 128.496 261.616 126.4 261.616C124.304 261.616 122.608 260.832 122.608 259.872C122.608 258.912 124.24 258.128 126.4 258.128ZM85.9518 248.912C85.9518 249.264 85.2958 249.584 84.4638 249.616C83.6318 249.648 82.8638 249.376 82.8638 249.008C82.8958 248.16 85.9198 248 85.9518 248.912Z" fill="black"/>
<path d="M101.104 289.296C102.129 289.296 102.96 288.802 102.96 288.192C102.96 287.583 102.129 287.088 101.104 287.088C100.079 287.088 99.248 287.583 99.248 288.192C99.248 288.802 100.079 289.296 101.104 289.296Z" fill="black"/>
<path fill-rule="evenodd" clip-rule="evenodd" d="M181.008 235.2C182.608 235.2 183.984 235.664 183.984 236.224C183.984 236.784 182.656 237.264 181.008 237.264C179.36 237.264 178.048 236.8 178.048 236.224C178.048 235.648 179.376 235.2 181.008 235.2ZM79.136 194.352C79.136 194.752 78.896 197.776 79.024 202.192C79.024 202.784 79.136 204.8 79.136 204.8C79.136 204.8 79.328 204.912 79.328 204.8C79.328 204.688 79.424 202.784 79.44 202.192C79.536 198.512 79.328 194.192 79.328 194.352C79.328 194.327 79.3181 194.303 79.2997 194.284C79.2817 194.267 79.2573 194.256 79.232 194.256C79.2064 194.256 79.1822 194.267 79.1642 194.284C79.1461 194.303 79.136 194.327 79.136 194.352ZM145.776 19.52C147.776 20.064 151.312 21.2 152.592 22.848C152.638 22.9085 152.664 22.9822 152.664 23.0582C152.664 23.1342 152.641 23.2083 152.596 23.2695C152.55 23.3307 152.486 23.3758 152.414 23.3978C152.341 23.4199 152.264 23.4179 152.192 23.392C145.792 20.784 135.6 24.112 129.136 26.8C126.576 27.872 141.936 10.544 152.976 13.264C153.052 13.287 153.117 13.3336 153.165 13.397C153.212 13.4605 153.237 13.5371 153.237 13.616C153.237 13.6948 153.212 13.7716 153.165 13.835C153.117 13.8984 153.052 13.945 152.976 13.968C150.466 14.5566 148.002 15.3211 145.6 16.256C147.44 16.336 151.68 16.608 153.104 17.856C153.161 17.9048 153.201 17.969 153.222 18.0408C153.242 18.1126 153.242 18.1887 153.22 18.26C153.197 18.3312 153.156 18.3946 153.098 18.4422C153.04 18.4898 152.97 18.5197 152.896 18.528C150.508 18.7357 148.13 19.0667 145.776 19.52ZM151.088 13.712C147.945 13.7006 144.854 14.5172 142.128 16.08C137.249 18.6686 132.905 22.1597 129.328 26.368C135.456 23.712 144.176 20.704 150.72 22.208C148.656 21.1536 146.461 20.3789 144.192 19.904C144.109 19.8866 144.036 19.8413 143.982 19.7757C143.929 19.7102 143.9 19.6283 143.9 19.544C143.9 19.4596 143.929 19.3779 143.982 19.3123C144.036 19.2468 144.109 19.2015 144.192 19.184C146.63 18.5271 149.118 18.0775 151.632 17.84C149.178 17.2614 146.665 16.9714 144.144 16.976C144.062 16.9783 143.981 16.9531 143.916 16.9044C143.849 16.8557 143.801 16.7862 143.778 16.7071C143.757 16.6279 143.762 16.5437 143.793 16.4678C143.825 16.3918 143.881 16.3286 143.952 16.288C146.226 15.1648 148.621 14.3007 151.088 13.712ZM43.04 147.552C41.4487 147.76 39.8446 147.857 38.24 147.84C38.1585 147.843 38.0782 147.819 38.0133 147.769C37.9485 147.72 37.9025 147.649 37.8836 147.569C37.8647 147.491 37.874 147.407 37.9098 147.334C37.9456 147.26 38.0058 147.201 38.08 147.168C40.064 146.096 44.736 145.04 47.136 143.376L53.072 139.408C53.0839 139.395 53.0987 139.384 53.1153 139.376C53.1319 139.368 53.1499 139.364 53.168 139.364C53.1863 139.364 53.204 139.368 53.2206 139.376C53.2372 139.384 53.252 139.395 53.264 139.408C53.44 139.616 53.072 139.632 51.072 142.272C49.7443 143.907 48.6658 145.729 47.872 147.68C47.0141 149.72 46.2609 151.803 45.616 153.92C45.616 154.4 44.464 154.752 44.784 152.128C44.9166 151.149 45.0978 150.177 45.328 149.216C43.668 150.415 41.9191 151.484 40.096 152.416C40.0302 152.454 39.9546 152.471 39.8792 152.464C39.8039 152.456 39.7323 152.427 39.6747 152.377C39.6168 152.328 39.5758 152.263 39.5566 152.189C39.5374 152.116 39.5415 152.039 39.568 151.968C40.3863 150.259 41.5717 148.751 43.04 147.552ZM52.096 140.464C44.256 145.984 47.76 143.984 39.936 147.104C41.4333 147.1 42.9216 146.875 44.352 146.432L44.528 146.288C44.88 146.016 45.504 146.56 44.816 147.008C43.2782 148.217 41.9202 149.64 40.784 151.232C42.5559 150.326 44.2152 149.213 45.728 147.92C45.7844 147.855 45.8618 147.811 45.947 147.798C46.0322 147.783 46.1195 147.799 46.194 147.843C46.2682 147.887 46.3249 147.956 46.3537 148.038C46.3825 148.119 46.3822 148.207 46.352 148.288C46.0209 149.495 45.7541 150.717 45.552 151.952C46.8168 147.668 49.0565 143.736 52.096 140.464ZM53.184 132.992C55.8973 128.596 59.7736 125.035 64.384 122.704C70.592 119.776 72.864 122.896 70.048 128.496C67.65 132.97 64.2222 136.808 60.048 139.696C60.5181 141.337 60.7072 143.047 60.608 144.752C60.192 146.352 52.368 149.04 51.296 148.912C51.2148 148.908 51.136 148.883 51.0685 148.838C51.001 148.792 50.9469 148.729 50.912 148.656C50.752 148.288 51.12 147.952 51.472 147.68C53.4254 146.253 55.4725 144.96 57.6 143.808L57.488 141.152L56.576 141.6C56.5166 141.616 56.4538 141.616 56.3944 141.599C56.3354 141.583 56.2818 141.549 56.24 141.504L51.2 136.592C51.1764 136.566 51.1633 136.532 51.1633 136.496C51.1633 136.46 51.1764 136.427 51.2 136.4C51.2 136.4 51.36 136.064 51.696 135.472H48.896C48.48 136.336 45.696 141.968 44.8 142.352C44.7357 142.383 44.6647 142.399 44.5934 142.396C44.5218 142.395 44.4517 142.376 44.3892 142.342C44.3264 142.307 44.2731 142.257 44.2333 142.199C44.1934 142.139 44.1681 142.071 44.16 142C43.968 140.8 46.336 132.976 47.904 132.512C49.645 132.352 51.4004 132.471 53.104 132.864C53.1293 132.874 53.1505 132.892 53.1648 132.915C53.1793 132.938 53.186 132.965 53.184 132.992ZM59.696 139.808C59.0609 140.232 58.404 140.621 57.728 140.976L58.064 144C58.064 144.24 58.064 144.096 54.864 146.208C53.888 146.832 52.896 147.488 52.224 147.984C54.6519 147.315 56.9931 146.364 59.2 145.152C59.376 145.04 59.84 144.72 59.904 144.512C60.073 142.943 60.0029 141.356 59.696 139.808ZM52.64 134.576C52.016 135.504 51.632 136.176 51.488 136.448L56.448 141.04C57.024 140.752 57.648 140.4 58.304 140C56.2373 138.388 54.3397 136.571 52.64 134.576ZM53.04 133.216C51.3896 132.982 49.7143 132.982 48.064 133.216C47.504 133.408 46.544 135.952 46.368 136.416C45.803 137.923 45.3486 139.468 45.008 141.04C45.968 139.616 48.592 134.96 48.48 135.184C48.5018 135.139 48.5358 135.101 48.5786 135.076C48.621 135.051 48.6702 135.039 48.72 135.04L51.84 135.2C52.16 134.592 52.544 133.968 53.04 133.216ZM61.856 124.912C58.2292 127.374 55.147 130.554 52.8 134.256C54.9245 135.887 56.8666 137.743 58.592 139.792C62.2429 137.385 65.3765 134.275 67.808 130.64L61.856 124.912ZM58.992 128.928C58.6842 129.251 58.443 129.631 58.2818 130.046C58.121 130.462 58.0436 130.906 58.0541 131.351C58.0642 131.797 58.1623 132.236 58.3427 132.644C58.5227 133.052 58.7813 133.42 59.104 133.728C59.4266 134.036 59.8065 134.278 60.2222 134.439C60.6382 134.599 61.0813 134.676 61.5272 134.667C61.9729 134.656 62.4122 134.557 62.82 134.377C63.2279 134.198 63.5962 133.939 63.904 133.616C64.5256 132.965 64.8631 132.093 64.8421 131.193C64.8212 130.293 64.4433 129.438 63.792 128.816C63.1406 128.194 62.2691 127.857 61.3687 127.878C60.4686 127.899 59.6136 128.277 58.992 128.928ZM63.456 129.184C63.9709 129.713 64.2592 130.422 64.2592 131.16C64.2592 131.898 63.9709 132.607 63.456 133.136C62.9509 133.604 62.2862 133.863 61.5976 133.857C60.9088 133.852 60.2478 133.585 59.7498 133.109C59.2514 132.634 58.9536 131.986 58.9169 131.298C58.8802 130.61 59.1072 129.934 59.552 129.408C60.0471 128.872 60.7307 128.55 61.4589 128.508C62.187 128.466 62.9029 128.708 63.456 129.184ZM62.576 130.096C62.7938 130.322 62.9405 130.607 62.9975 130.916C63.0542 131.225 63.0193 131.543 62.8965 131.832C62.7738 132.121 62.5687 132.368 62.3069 132.541C62.0448 132.714 61.7378 132.806 61.424 132.806C61.1101 132.806 60.8029 132.714 60.541 132.541C60.2795 132.368 60.0744 132.121 59.9517 131.832C59.8286 131.543 59.7934 131.225 59.8507 130.916C59.9074 130.607 60.0541 130.322 60.272 130.096C60.4212 129.941 60.6001 129.818 60.7982 129.734C60.996 129.65 61.209 129.606 61.424 129.606C61.6389 129.606 61.8519 129.65 62.0497 129.734C62.2478 129.818 62.4267 129.941 62.576 130.096Z" fill="black"/>
<path fill-rule="evenodd" clip-rule="evenodd" d="M113.232 21.4242C113.086 21.3 112.971 21.143 112.897 20.966C112.823 20.789 112.792 20.597 112.806 20.4058C112.821 20.2145 112.88 20.0292 112.98 19.8654C113.08 19.7014 113.217 19.5634 113.38 19.4626C113.543 19.3617 113.728 19.3009 113.919 19.2851C114.11 19.2694 114.302 19.299 114.48 19.3718C114.657 19.4444 114.815 19.558 114.94 19.7035C115.066 19.8488 115.155 20.0218 115.2 20.2082C115.212 20.4095 115.175 20.6107 115.094 20.7955C115.013 20.9802 114.89 21.1432 114.734 21.2711C114.578 21.399 114.394 21.4882 114.197 21.5315C114 21.5749 113.795 21.5708 113.6 21.5202C113.6 21.6802 113.36 23.4562 112.88 25.5362C115.103 25.5446 117.249 26.3508 118.928 27.8082C118.952 27.7635 118.992 27.7294 119.04 27.7122C131.52 25.9522 132.816 30.0801 128.8 33.3921C124.288 37.1201 110.432 41.3921 102.784 40.3841C100.784 40.1441 97.6799 39.2161 97.6479 37.3281C97.6479 34.8961 104.16 32.1921 104.416 32.0641C105.459 29.4227 107.475 27.2811 110.048 26.0802C108.912 24.8482 107.728 23.0562 107.456 22.7522C106.096 23.4882 104.816 21.7442 105.856 20.8482C106.085 20.6472 106.384 20.5439 106.688 20.5602C106.942 20.5087 107.205 20.5443 107.436 20.6611C107.667 20.7779 107.852 20.9691 107.961 21.2039C108.07 21.4386 108.097 21.7032 108.037 21.9551C107.978 22.207 107.835 22.4314 107.632 22.5922C108.17 22.9799 108.65 23.4434 109.056 23.9682C111.36 26.7522 109.408 25.7922 112.256 25.5682C112.341 24.141 112.671 22.7391 113.232 21.4242ZM104.144 32.5121C102.704 33.2161 98.0639 35.7121 98.1279 37.3121C98.1279 37.8401 98.5919 38.3681 99.4399 38.8321C105.392 42.0321 123.104 37.0081 128.24 32.8321C131.168 30.4801 130.864 28.2242 125.296 27.8242C123.161 27.7274 121.022 27.7915 118.896 28.0162C118.496 28.9442 114.64 36.2401 104.144 32.5121ZM102.544 36.3201C102.474 36.4682 102.437 36.6293 102.433 36.7928C102.43 36.9563 102.461 37.1189 102.524 37.2696C102.588 37.4203 102.682 37.5562 102.801 37.6685C102.92 37.7805 103.061 37.8663 103.216 37.9201C103.37 37.9582 103.529 37.9658 103.685 37.9422C103.842 37.9187 103.992 37.8645 104.127 37.7828C104.262 37.7011 104.38 37.5931 104.474 37.4657C104.567 37.3383 104.634 37.1937 104.672 37.0401C104.768 36.7579 104.747 36.4493 104.615 36.1822C104.483 35.9152 104.25 35.7115 103.968 35.6161C103.686 35.5207 103.377 35.5411 103.11 35.6731C102.843 35.8052 102.64 36.0379 102.544 36.3201ZM103.856 35.8721C104.56 36.1921 104.08 37.4721 103.408 37.2801C102.736 37.0881 103.088 35.7281 103.856 35.8721ZM114.896 34.9601C114.783 34.8757 114.652 34.8181 114.514 34.7908C114.375 34.7637 114.233 34.7678 114.096 34.8033C113.96 34.8385 113.832 34.904 113.724 34.9947C113.616 35.0858 113.53 35.1995 113.472 35.3281C113.349 35.6149 113.337 35.937 113.437 36.2325C113.538 36.5278 113.744 36.7757 114.016 36.9281C114.146 37.0087 114.292 37.059 114.444 37.0756C114.596 37.0922 114.75 37.0744 114.894 37.0235C115.038 36.9729 115.17 36.8906 115.278 36.7829C115.386 36.675 115.469 36.5441 115.52 36.4001C115.61 36.1252 115.596 35.827 115.481 35.562C115.366 35.2967 115.158 35.0826 114.896 34.9601ZM114.768 35.1841C115.408 35.6641 114.992 36.7841 114.32 36.4001C113.648 36.0161 114 34.8641 114.768 35.2001V35.1841ZM123.328 30.6081C123.235 30.5211 123.123 30.456 123.002 30.4181C122.881 30.38 122.752 30.3699 122.626 30.3882C122.5 30.4068 122.38 30.4533 122.274 30.5246C122.168 30.5959 122.08 30.6901 122.016 30.8001C121.892 31.0564 121.866 31.3488 121.943 31.6228C122.019 31.8968 122.193 32.1333 122.432 32.2881C122.539 32.3751 122.663 32.4371 122.797 32.4699C122.93 32.5028 123.07 32.5054 123.204 32.4781C123.339 32.4504 123.466 32.3931 123.576 32.3105C123.686 32.2279 123.776 32.122 123.84 32.0001C123.899 31.8753 123.932 31.74 123.939 31.6021C123.945 31.4643 123.923 31.3264 123.876 31.1969C123.828 31.0672 123.755 30.9485 123.661 30.8472C123.567 30.7463 123.454 30.6648 123.328 30.6081ZM123.2 30.8161C123.68 31.2641 123.344 32.1601 122.784 31.7761C122.224 31.3921 122.544 30.4961 123.2 30.8161ZM106.688 20.8002C106.895 20.8078 107.092 20.8923 107.24 21.0374C107.388 21.1823 107.476 21.3772 107.488 21.5842C107.48 21.7695 107.4 21.9444 107.266 22.0727C107.132 22.2008 106.954 22.2723 106.768 22.2722C106.672 22.2774 106.575 22.2635 106.483 22.2314C106.392 22.1992 106.308 22.1495 106.236 22.0849C106.09 21.9543 106.003 21.7714 105.992 21.5762C105.981 21.381 106.049 21.1895 106.179 21.0439C106.31 20.8984 106.493 20.8107 106.688 20.8002ZM113.776 19.4402C113.983 19.4478 114.18 19.5323 114.328 19.6774C114.476 19.8223 114.564 20.0172 114.576 20.2242C114.568 20.4095 114.488 20.5844 114.354 20.7127C114.22 20.8408 114.042 20.9123 113.856 20.9122C113.753 20.9322 113.647 20.9299 113.544 20.9054C113.442 20.881 113.346 20.8348 113.263 20.7702C113.18 20.7055 113.112 20.6239 113.064 20.5307C113.015 20.4375 112.987 20.335 112.981 20.23C112.975 20.125 112.992 20.02 113.03 19.9221C113.068 19.8242 113.127 19.7355 113.202 19.6622C113.278 19.5889 113.368 19.5324 113.467 19.497C113.566 19.4614 113.672 19.4475 113.776 19.4562V19.4402ZM192.736 98.8801C193.487 97.4887 194.718 96.4184 196.2 95.868C197.682 95.3176 199.314 95.3255 200.791 95.8893C202.267 96.4536 203.488 97.5355 204.226 98.9336C204.964 100.332 205.168 101.951 204.8 103.488C207.154 104.633 209.402 105.982 211.52 107.52C212.448 108.352 212.32 109.12 210.672 109.008C207.811 108.753 204.98 108.217 202.224 107.408C201.342 108.052 200.312 108.464 199.23 108.606C198.147 108.748 197.045 108.616 196.027 108.22C195.008 107.825 194.106 107.18 193.403 106.345C192.699 105.51 192.216 104.511 192 103.44C190.4 102.672 184.848 99.8081 184.512 98.1921C184.4 97.6001 184.976 97.3281 185.584 97.2641C188.043 97.3933 190.46 97.9399 192.736 98.8801ZM204.672 103.824C204.36 104.911 203.77 105.898 202.96 106.688C205.679 107.472 208.464 108.007 211.28 108.288C210.368 107.104 205.984 104.576 204.672 103.824ZM192.576 103.68C192.836 104.58 193.299 105.409 193.931 106.101C194.563 106.793 195.346 107.33 196.218 107.67C197.091 108.011 198.031 108.146 198.964 108.064C199.898 107.982 200.799 107.687 201.6 107.2C198.51 106.252 195.492 105.075 192.576 103.68ZM202.464 106.544C203.588 105.542 204.304 104.161 204.476 102.665C204.647 101.169 204.261 99.6621 203.392 98.4321C202.936 97.7604 202.348 97.1888 201.664 96.7521C200.979 96.3155 200.213 96.0231 199.412 95.8928C198.611 95.7624 197.791 95.7971 197.004 95.9943C196.216 96.1915 195.477 96.5476 194.832 97.0401C193.963 97.6798 193.278 98.5371 192.846 99.5256C192.412 100.514 192.248 101.6 192.368 102.672C195.624 104.233 199 105.527 202.464 106.544ZM192.576 99.2001C191.392 98.8161 186.176 97.3121 185.232 98.0481C185.6 99.2001 190.8 101.904 192 102.4C191.909 101.301 192.107 100.198 192.576 99.2001ZM76.576 197.808C78.5079 199.078 80.5413 200.185 82.656 201.12C82.6766 201.127 82.6987 201.126 82.7188 201.119C82.7389 201.111 82.7557 201.096 82.7668 201.078C82.7778 201.059 82.7825 201.037 82.7799 201.016C82.7773 200.995 82.7674 200.975 82.752 200.96C80.818 199.693 78.7848 198.587 76.672 197.648C76.6516 197.641 76.6295 197.643 76.6094 197.65C76.589 197.657 76.5722 197.672 76.5611 197.691C76.5501 197.708 76.5454 197.731 76.5483 197.752C76.5509 197.773 76.5605 197.794 76.576 197.808ZM41.888 57.3281C41.888 53.4561 42.112 49.8081 42.112 49.9681C42.1224 49.9361 42.1428 49.9082 42.1701 49.8884C42.1975 49.8686 42.2304 49.8582 42.2641 49.8582C42.2978 49.8582 42.3304 49.8686 42.3578 49.8884C42.3851 49.9082 42.4055 49.9361 42.416 49.9681C42.416 51.1361 42.624 52.1761 42.64 57.5841C43.8225 56.8147 45.0455 56.1095 46.304 55.4721C46.3208 55.4616 46.3394 55.4547 46.3589 55.4512C46.3787 55.448 46.3988 55.4485 46.418 55.4529C46.4372 55.4576 46.4555 55.4657 46.4718 55.4773C46.4878 55.4887 46.5015 55.5032 46.512 55.5201C46.5224 55.537 46.5297 55.5556 46.5329 55.5754C46.5364 55.5946 46.5355 55.6147 46.5312 55.6342C46.5268 55.6534 46.5184 55.6717 46.507 55.6877C46.4954 55.704 46.4808 55.7176 46.464 55.7281C45.44 56.5683 44.3714 57.3534 43.264 58.0801C45.568 59.3441 46.032 59.6801 47.136 60.3521C48.24 61.0241 48.256 61.0241 48.176 61.1841C48.096 61.3441 48.016 61.2801 46.912 60.7681C45.808 60.2561 45.056 59.9361 42.64 58.6081C42.64 64.7361 42.4 67.5361 42.4 67.3761C42.3895 67.4081 42.3691 67.436 42.3418 67.4558C42.3144 67.4756 42.2818 67.4861 42.2481 67.4861C42.2144 67.4861 42.1815 67.4756 42.1541 67.4558C42.1268 67.436 42.1064 67.4081 42.096 67.3761C42.096 66.2241 41.872 65.2161 41.872 58.9761C40.6237 59.8032 39.3312 60.5616 38 61.2481C37.9831 61.2586 37.9645 61.2659 37.945 61.2691C37.9255 61.2723 37.9054 61.2717 37.8862 61.2673C37.8667 61.2627 37.8484 61.2545 37.8324 61.2429C37.8164 61.2315 37.8024 61.217 37.792 61.2001C37.7815 61.1832 37.7745 61.1646 37.7713 61.1451C37.7678 61.1256 37.7684 61.1056 37.773 61.0861C37.7774 61.0669 37.7856 61.0485 37.7972 61.0326C37.8085 61.0163 37.8231 61.0026 37.84 60.9921C39.0999 59.9605 40.4194 59.004 41.792 58.1281C40.496 57.4081 40.08 57.1521 39.056 56.5281C38.032 55.9041 37.696 55.7121 37.776 55.5361C37.8062 55.514 37.8426 55.5021 37.8801 55.5021C37.9173 55.5021 37.954 55.514 37.984 55.5361C40 56.2881 41.2 56.9761 41.888 57.3281Z" fill="black"/>
<path fill-rule="evenodd" clip-rule="evenodd" d="M76.6719 201.12C78.4642 200.18 80.1625 199.071 81.7439 197.808C81.8559 197.808 81.7439 197.584 81.6479 197.648C79.8568 198.589 78.1584 199.699 76.5759 200.96C76.4799 201.024 76.5759 201.184 76.6719 201.12ZM126.272 104.64C126.272 109.136 126.432 109.856 126.432 110.672C126.425 110.689 126.423 110.707 126.424 110.726C126.426 110.744 126.433 110.761 126.443 110.776C126.453 110.792 126.467 110.804 126.483 110.812C126.499 110.821 126.517 110.825 126.536 110.825C126.554 110.825 126.572 110.821 126.588 110.812C126.604 110.804 126.618 110.792 126.629 110.776C126.639 110.761 126.645 110.744 126.647 110.726C126.649 110.707 126.647 110.689 126.64 110.672C126.64 110.832 126.816 108.24 126.816 104.368C128.056 105.069 129.333 105.705 130.64 106.272C130.768 106.272 130.88 106.144 130.752 106.08C129.625 105.328 128.461 104.633 127.264 104C128.056 103.511 128.82 102.976 129.552 102.4C129.573 102.384 129.588 102.36 129.594 102.333C129.599 102.306 129.594 102.278 129.58 102.255C129.567 102.231 129.545 102.213 129.519 102.205C129.493 102.196 129.465 102.197 129.44 102.208C129.44 102.208 128.128 102.88 126.816 103.728C126.816 99.7438 126.656 98.9278 126.656 98.2558C126.656 98.2264 126.644 98.1979 126.623 98.1767C126.602 98.1557 126.574 98.1438 126.544 98.1438C126.514 98.1438 126.486 98.1557 126.465 98.1767C126.444 98.1979 126.432 98.2264 126.432 98.2558C126.432 98.0958 126.288 100.832 126.272 103.552C125.808 103.312 124.88 102.816 123.472 102.208C123.344 102.208 123.232 102.336 123.36 102.4C123.488 102.464 124.544 103.216 126.208 104.128C125.223 104.724 124.272 105.376 123.36 106.08C123.232 106.08 123.36 106.352 123.472 106.272C123.312 106.352 124.512 105.76 126.272 104.64ZM166.496 217.696C164.752 216.976 146.352 215.84 146.192 215.824C145.696 215.824 142.112 216.544 141.872 216.608C141.632 216.672 141.872 216.608 141.872 216.688C143.27 217.327 144.714 217.861 146.192 218.288C147.792 218.624 150.992 218.656 166.16 220.288C166.448 220.288 167.056 219.296 166.704 217.856C166.688 217.808 166.576 217.744 166.496 217.696ZM146.112 218.128L143.696 217.28C143.789 217.152 143.85 217.004 143.872 216.848C143.894 216.692 143.878 216.532 143.824 216.384C144.606 216.227 145.397 216.113 146.192 216.048C146.576 216.432 145.552 216.576 146.32 217.072C146.416 217.072 146.432 217.072 146.32 217.184C146.279 217.204 146.244 217.232 146.214 217.267C146.183 217.301 146.162 217.341 146.149 217.385C146.135 217.428 146.13 217.475 146.135 217.519C146.14 217.564 146.154 217.608 146.176 217.648C146.304 217.872 146.448 217.968 146.112 218.128ZM146.304 218.128C146.752 217.888 146.144 217.52 146.448 217.328C147.12 216.864 143.92 216.992 165.056 218.928C165.012 219.257 165.085 219.592 165.264 219.872L146.304 218.128ZM165.072 218.8C164.352 218.72 146.64 217.04 146.528 216.944C146.416 216.848 146.128 216.768 146.272 216.576C146.416 216.384 146.496 216.208 146.272 216.016C146.432 216.016 162.128 217.264 165.472 217.824C165.238 218.111 165.098 218.463 165.072 218.832V218.8ZM166.096 219.904C165.984 219.792 165.968 219.824 165.856 219.504C165.744 219.184 165.856 218.096 166.368 218.096C166.446 218.405 166.462 218.727 166.416 219.043C166.369 219.359 166.261 219.663 166.096 219.936V219.904ZM177.216 172.688C177.198 172.629 177.168 172.575 177.126 172.529C177.085 172.484 177.034 172.448 176.977 172.424C176.921 172.4 176.86 172.389 176.797 172.393C176.736 172.396 176.676 172.412 176.622 172.441C176.567 172.471 176.521 172.511 176.484 172.56C176.448 172.609 176.422 172.667 176.41 172.727C176.398 172.787 176.4 172.849 176.414 172.909C176.429 172.969 176.457 173.024 176.496 173.072C176.656 173.328 176.816 173.584 176.992 173.84C177.015 173.895 177.052 173.944 177.097 173.984C177.142 174.024 177.196 174.053 177.254 174.071C177.312 174.088 177.373 174.093 177.431 174.084C177.492 174.076 177.549 174.053 177.6 174.021C177.65 173.988 177.693 173.944 177.725 173.893C177.757 173.843 177.778 173.785 177.785 173.725C177.793 173.665 177.788 173.604 177.769 173.547C177.751 173.489 177.721 173.436 177.68 173.392C177.6 173.168 177.36 172.928 177.216 172.688ZM157.28 138.704C157.376 137.952 158.256 134.128 157.92 134.048C157.901 134.04 157.881 134.037 157.861 134.037C157.841 134.039 157.821 134.044 157.802 134.053C157.783 134.063 157.767 134.075 157.756 134.091C157.742 134.107 157.733 134.124 157.728 134.144C157.274 135.261 156.926 136.417 156.688 137.6C156.597 138.016 156.538 138.439 156.512 138.864C156.514 138.929 156.533 138.993 156.566 139.049C156.599 139.105 156.647 139.151 156.704 139.184C157.105 139.388 157.538 139.524 157.984 139.584C158.336 139.584 159.584 139.68 159.44 139.344C159.296 139.008 159.104 139.616 157.28 138.704ZM164.464 136.384V135.552C164.464 134.976 163.664 134.896 163.648 135.552V136.464C163.644 136.524 163.652 136.585 163.674 136.641C163.696 136.699 163.729 136.749 163.772 136.792C163.815 136.835 163.868 136.867 163.925 136.887C163.982 136.907 164.044 136.915 164.103 136.908C164.164 136.903 164.222 136.883 164.274 136.852C164.326 136.821 164.372 136.78 164.405 136.729C164.439 136.68 164.462 136.623 164.473 136.564C164.484 136.504 164.48 136.443 164.464 136.384ZM165.52 140.8C165.008 142.72 164.32 143.008 163.488 143.104C163.317 143.117 163.146 143.117 162.976 143.104C162.938 143.091 162.896 143.095 162.86 143.112C162.823 143.131 162.797 143.161 162.784 143.2C162.772 143.239 162.774 143.28 162.791 143.316C162.81 143.352 162.842 143.379 162.88 143.392C164.272 144.192 166.176 143.216 165.824 140.8C165.813 140.768 165.793 140.74 165.766 140.72C165.738 140.7 165.705 140.689 165.671 140.689C165.638 140.689 165.605 140.7 165.578 140.72C165.55 140.74 165.53 140.768 165.52 140.8ZM171.536 160.8C171.526 160.748 171.506 160.697 171.478 160.652C171.449 160.608 171.412 160.568 171.367 160.539C171.324 160.508 171.274 160.487 171.222 160.475C171.17 160.464 171.117 160.463 171.063 160.472C171.012 160.481 170.961 160.501 170.916 160.529C170.871 160.559 170.833 160.596 170.802 160.64C170.772 160.684 170.75 160.733 170.738 160.785C170.727 160.837 170.726 160.892 170.736 160.944C170.804 161.241 170.89 161.536 170.992 161.824C170.997 161.885 171.015 161.945 171.046 161.999C171.077 162.052 171.118 162.097 171.169 162.133C171.22 162.168 171.278 162.192 171.338 162.201C171.399 162.212 171.461 162.208 171.521 162.192C171.58 162.175 171.634 162.144 171.681 162.104C171.728 162.063 171.764 162.013 171.789 161.956C171.813 161.9 171.825 161.839 171.822 161.776C171.82 161.715 171.804 161.655 171.776 161.6C171.68 161.328 171.6 161.056 171.536 160.8ZM155.792 134C155.804 133.94 155.802 133.877 155.788 133.817C155.773 133.757 155.745 133.703 155.705 133.655C155.666 133.607 155.617 133.569 155.562 133.543C155.506 133.516 155.445 133.503 155.383 133.503C155.322 133.503 155.261 133.516 155.206 133.543C155.15 133.569 155.101 133.607 155.062 133.655C155.024 133.703 154.996 133.757 154.981 133.817C154.965 133.877 154.964 133.94 154.976 134V134.912C154.964 134.972 154.965 135.035 154.981 135.095C154.996 135.153 155.024 135.209 155.062 135.257C155.101 135.304 155.15 135.343 155.206 135.369C155.261 135.396 155.322 135.409 155.383 135.409C155.445 135.409 155.506 135.396 155.562 135.369C155.617 135.343 155.666 135.304 155.705 135.257C155.745 135.209 155.773 135.153 155.788 135.095C155.802 135.035 155.804 134.972 155.792 134.912C155.773 134.608 155.773 134.304 155.792 134ZM282.272 201.024C282.176 201.04 282.272 201.024 282.272 201.024V201.024Z" fill="black"/>
<path fill-rule="evenodd" clip-rule="evenodd" d="M290.256 200C288.48 199.136 284.256 199.856 282.256 200.272C281.521 199.451 280.595 198.825 279.559 198.452C278.523 198.077 277.409 197.967 276.32 198.128C274.528 198.576 274.096 200.784 274.176 202.64C273.024 202.432 271.776 202.288 270.624 202.176C270.72 201.824 271.024 201.328 270.928 200.976C270.876 200.851 270.797 200.737 270.699 200.645C270.599 200.552 270.48 200.483 270.35 200.44C270.221 200.397 270.085 200.383 269.949 200.399C269.815 200.413 269.684 200.457 269.568 200.528C269.249 200.783 268.955 201.067 268.688 201.376C268.688 200.816 269.152 199.92 268.592 199.776C268.032 199.632 266.288 201.2 265.792 201.76C262.117 201.356 258.411 201.356 254.736 201.76C249.925 202.105 245.392 204.14 241.936 207.504C261.392 185.104 269.936 169.712 269.712 150.528C269.488 131.344 246.688 122.192 237.312 121.952C228.208 121.728 218.816 126.752 218.336 126.752C210.112 128.352 188.544 125.968 184.016 127.856C184.072 125.828 183.708 123.812 182.948 121.931C182.188 120.051 181.048 118.347 179.6 116.928C177.008 114.096 172.864 113.04 168.656 113.216C162.656 113.488 156.704 116 153.728 121.216C152.741 122.905 152.161 124.8 152.032 126.752C152.032 127.248 151.008 135.408 153.632 141.584C154.224 143.148 155.171 144.553 156.397 145.688C157.625 146.824 159.099 147.659 160.704 148.128C158.117 151.557 155.745 155.143 153.6 158.864C153.104 159.904 153.472 160.464 154.192 160.464C154.912 160.464 155.872 160.272 156.544 160.304C155.488 163.2 152.8 170.752 152.144 173.744C148.855 175.959 145.892 178.625 143.344 181.664C138.544 187.168 136.304 193.136 130.864 196.32L129.264 197.216C131.44 190.608 135.552 177.488 134.064 177.472C132.576 177.456 128.96 190.08 126.656 198.64C124.192 200 122.944 200.864 122.08 203.552C121.798 204.232 121.653 204.96 121.653 205.696C121.653 206.432 121.798 207.16 122.08 207.84C122.183 208.057 122.34 208.247 122.536 208.387C122.732 208.527 122.961 208.613 123.2 208.64C123.392 208.64 123.392 208.464 122.864 209.632C122.613 209.704 122.375 209.817 122.16 209.968L114.464 205.28C114.288 205.28 116.496 204.976 69.6639 211.072C68.7839 210.416 67.8559 209.728 66.8959 208.976C43.8879 191.072 119.024 171.856 125.04 147.392C130.432 125.488 99.4399 121.072 106.32 100.496C113.2 79.9201 158.192 85.6801 200.544 83.2161C242.896 80.7521 259.744 38.0001 228.912 15.728C198.08 -6.54407 166.4 25.088 158.912 33.1681C151.424 41.2481 142.784 51.8241 118.528 50.7681C94.2722 49.7121 62.5279 53.8241 50.8959 88.9921C45.2959 105.824 50.3199 117.632 57.7919 126.992C60.2946 124.446 63.3899 122.56 66.7999 121.504C68.7839 121.024 70.7519 121.28 71.3119 123.248C72.3679 126.864 67.9839 132.48 65.4399 135.28C71.8399 141.456 77.9839 146.672 80.3999 152.064C84.4319 161.12 65.1039 167.824 56.9439 173.12C48.7839 178.416 36.3199 194.8 43.9679 210.704C44.5424 211.923 45.1836 213.108 45.8879 214.256C29.6639 216.352 29.1039 216.352 28.944 216.448C28.784 216.544 28.832 216.832 28.944 216.992H28.832C30.2719 218.592 72.6559 279.168 98.6719 309.952L99.1359 310.048C104.768 307.343 206.976 257.728 201.536 254.672C201.536 254.672 126.816 212.96 125.04 211.904C125.318 211.427 125.559 210.929 125.76 210.416C125.849 210.409 125.932 210.372 125.996 210.311C126.06 210.249 126.101 210.168 126.112 210.08V209.216C127.104 209.552 128.656 208.592 129.456 207.872C131.056 206.4 133.456 202.304 135.232 201.76C138.773 200.877 142.267 199.809 145.696 198.56C159.952 193.216 165.872 187.232 172.08 177.568C173.107 176.059 173.98 174.451 174.688 172.768C178.311 176.68 182.715 179.788 187.616 181.888C174.688 196.816 176.72 206.288 181.392 211.456C185.664 216.176 192.592 214.512 193.728 214.16C193.728 221.264 196.128 237.04 196.928 238.624C197.344 239.536 195.952 240.224 195.664 242.032C195.513 242.951 195.632 243.893 196.007 244.745C196.381 245.599 196.996 246.323 197.776 246.832C199.552 247.952 202.576 248.016 201.392 246.24C200.997 245.732 200.552 245.267 200.064 244.848C200.528 244.992 201.04 245.184 201.664 245.408C207.504 247.696 208.272 248.736 209.344 248.432C209.488 248.399 209.623 248.333 209.739 248.243C209.854 248.152 209.949 248.036 210.016 247.904C210.144 247.992 210.289 248.053 210.441 248.081C210.595 248.109 210.75 248.105 210.903 248.069C211.053 248.033 211.195 247.965 211.317 247.871C211.441 247.776 211.543 247.656 211.616 247.52C211.671 247.416 211.7 247.301 211.7 247.184C211.7 247.067 211.671 246.952 211.616 246.848C211.819 246.507 211.888 246.101 211.808 245.712C211.808 244.272 206.304 239.568 205.184 238.64C205.344 237.04 206.192 233.488 208.304 224.048C219.216 236.352 255.904 219.248 257.904 218.384C258.24 218.736 271.792 212.96 273.36 212.128C273.2 212.128 290.544 204.288 291.2 201.408C291.2 200.736 290.768 200.304 290.256 200ZM228.368 55.1361C228.633 55.1442 228.884 55.2565 229.065 55.4479C229.248 55.6396 229.348 55.8953 229.344 56.1601C229.348 56.2916 229.326 56.4228 229.28 56.5458C229.232 56.6686 229.161 56.7812 229.07 56.8766C228.98 56.9717 228.871 57.0482 228.75 57.1009C228.629 57.1535 228.5 57.1817 228.368 57.1841C228.236 57.1817 228.105 57.1538 227.984 57.1012C227.863 57.0485 227.752 56.9726 227.66 56.8774C227.568 56.7823 227.496 56.67 227.447 56.547C227.399 56.4239 227.374 56.2921 227.376 56.1601C227.374 56.0277 227.399 55.8959 227.447 55.7729C227.496 55.6498 227.568 55.5375 227.66 55.4424C227.752 55.3473 227.863 55.2713 227.984 55.2187C228.105 55.166 228.236 55.1381 228.368 55.1361ZM219.328 27.2C219.457 27.1999 219.585 27.2258 219.705 27.2758C219.825 27.3257 219.933 27.3991 220.024 27.4915C220.115 27.5838 220.187 27.6932 220.235 27.8135C220.283 27.9337 220.307 28.0624 220.304 28.192C220.321 28.3295 220.311 28.4692 220.269 28.6019C220.229 28.7346 220.161 28.8571 220.069 28.9612C219.977 29.0654 219.865 29.1489 219.739 29.2059C219.612 29.2632 219.475 29.2926 219.336 29.2926C219.197 29.2926 219.06 29.2632 218.933 29.2059C218.808 29.1489 218.695 29.0654 218.603 28.9612C218.512 28.8571 218.444 28.7346 218.403 28.6019C218.363 28.4692 218.35 28.3295 218.368 28.192C218.366 28.0638 218.389 27.9364 218.436 27.8172C218.484 27.698 218.553 27.5892 218.643 27.4971C218.732 27.405 218.839 27.3314 218.956 27.2803C219.073 27.2294 219.2 27.202 219.328 27.2ZM189.248 71.3441C189.133 71.3231 189.031 71.2629 188.956 71.1739C188.881 71.0846 188.841 70.9723 188.841 70.8559C188.841 70.7399 188.881 70.6273 188.956 70.5382C189.031 70.4489 189.133 70.3887 189.248 70.3681C189.381 70.3681 189.511 70.421 189.604 70.5156C189.699 70.6101 189.752 70.7384 189.752 70.8719C189.752 71.0057 189.699 71.134 189.604 71.2283C189.511 71.3228 189.381 71.3761 189.248 71.3761V71.3441ZM184.896 27.392C184.896 26.752 186.496 26.432 187.2 26.336C188.363 26.1823 189.541 26.1823 190.704 26.336C191.425 25.0126 192.312 23.7865 193.344 22.688C193.68 22.416 193.984 22.32 194.288 22.688C195.012 24.1492 195.477 25.7243 195.664 27.344C198.144 27.984 201.6 29.1681 199.52 30.6561C198.88 31.1201 197.744 31.6001 196.512 32.2561C196.651 33.5471 196.693 34.8466 196.64 36.1441C196.64 36.7361 196.48 37.6321 195.888 37.7441C194.688 37.9521 193.76 36.2881 191.872 34.6561C190.064 35.5521 186.448 37.5361 186.368 35.6321C186.564 34.0079 187.047 32.4315 187.792 30.9761C185.952 29.2321 184.784 28.384 184.896 27.424V27.392ZM183.296 56.8161C183.292 57.9329 183.001 59.0299 182.449 60.0009C181.899 60.9723 181.107 61.7851 180.149 62.3611C179.192 62.9368 178.103 63.2559 176.987 63.2882C175.87 63.3202 174.764 63.0639 173.776 62.5441L183.088 55.1521C183.23 55.7063 183.307 56.2756 183.312 56.8481L183.296 56.8161ZM182.896 54.5601C180.336 56.5281 176.896 59.3601 173.456 62.3521C173.197 62.1959 172.951 62.0193 172.72 61.8241C176.064 58.4481 179.344 54.6401 181.376 52.2241C182.045 52.8996 182.568 53.7057 182.912 54.5921L182.896 54.5601ZM181.024 51.8881C180.384 52.5761 174.816 58.8481 172.416 61.4881C171.733 60.8606 171.188 60.0978 170.816 59.2481C173.248 57.4881 176.56 55.0401 180.24 52.1441L180.816 51.6801L181.024 51.8881ZM176.816 50.2881C178.1 50.2866 179.355 50.6712 180.416 51.3921L178.16 52.9921C177.648 53.3761 173.76 56.4321 170.688 58.8321C170.363 57.8569 170.272 56.8184 170.424 55.8014C170.577 54.7846 170.968 53.8185 171.566 52.9819C172.164 52.1452 172.951 51.4622 173.864 50.9883C174.776 50.5147 175.788 50.2636 176.816 50.2561V50.2881ZM161.392 47.6641C161.587 47.6577 161.779 47.7095 161.943 47.8127C162.108 47.916 162.237 48.0661 162.316 48.2439C162.395 48.4216 162.419 48.6185 162.385 48.81C162.35 49.0014 162.261 49.1783 162.125 49.3179C161.991 49.4578 161.817 49.5538 161.627 49.5943C161.436 49.6347 161.239 49.6172 161.059 49.5442C160.878 49.4715 160.724 49.3467 160.615 49.1852C160.507 49.0244 160.448 48.8344 160.448 48.6401C160.464 48.3966 160.573 48.1685 160.75 48.0021C160.929 47.8357 161.164 47.7435 161.408 47.7441L161.392 47.6641ZM152.576 71.8881C152.949 71.9006 153.312 72.0228 153.616 72.2395C153.92 72.4562 154.155 72.7579 154.289 73.1067C154.423 73.4555 154.452 73.836 154.372 74.2011C154.291 74.5662 154.105 74.8993 153.836 75.1593C153.568 75.4191 153.228 75.5943 152.861 75.6626C152.493 75.731 152.113 75.69 151.769 75.5439C151.425 75.3982 151.132 75.1544 150.925 74.8428C150.718 74.5313 150.608 74.1659 150.608 73.7921C150.621 73.2798 150.835 72.7931 151.203 72.437C151.571 72.0809 152.064 71.8837 152.576 71.8881ZM127.68 67.3761C128.368 67.3761 128.368 68.6081 127.68 68.6081C126.992 68.6081 126.976 67.3761 127.68 67.3761ZM62.6079 102.752C62.5322 102.765 62.4543 102.762 62.3798 102.742C62.3053 102.722 62.2361 102.686 62.1771 102.636C62.118 102.587 62.0706 102.525 62.038 102.455C62.0054 102.385 61.9885 102.309 61.9885 102.232C61.9885 102.155 62.0054 102.079 62.038 102.009C62.0706 101.939 62.118 101.877 62.1771 101.828C62.2361 101.778 62.3053 101.742 62.3798 101.722C62.4543 101.702 62.5322 101.699 62.6079 101.712C62.6841 101.699 62.7618 101.702 62.8365 101.722C62.9107 101.742 62.98 101.778 63.039 101.828C63.0981 101.877 63.1455 101.939 63.1781 102.009C63.2109 102.079 63.2275 102.155 63.2275 102.232C63.2275 102.309 63.2109 102.385 63.1781 102.455C63.1455 102.525 63.0981 102.587 63.039 102.636C62.98 102.686 62.9107 102.722 62.8365 102.742C62.7618 102.762 62.6841 102.765 62.6079 102.752ZM97.0079 165.568C96.7932 165.543 96.5899 165.457 96.4229 165.319C96.2562 165.181 96.1328 164.997 96.0677 164.792C96.0028 164.585 95.999 164.364 96.0569 164.156C96.1148 163.947 96.232 163.76 96.3941 163.616C96.5561 163.473 96.7562 163.38 96.9704 163.348C97.1845 163.316 97.4032 163.347 97.6002 163.436C97.7971 163.525 97.9638 163.671 98.0802 163.853C98.1968 164.035 98.2576 164.248 98.2559 164.464C98.2355 164.775 98.0927 165.065 97.8591 165.272C97.6255 165.48 97.3197 165.585 97.0079 165.568ZM100.8 58.5601C101.019 58.5569 101.234 58.6188 101.418 58.7381C101.601 58.8577 101.745 59.0287 101.831 59.2303C101.917 59.4316 101.942 59.6542 101.901 59.8694C101.86 60.0844 101.756 60.2828 101.603 60.4388C101.449 60.5947 101.252 60.7015 101.037 60.7454C100.823 60.7893 100.6 60.7684 100.397 60.6855C100.195 60.6022 100.021 60.4609 99.8992 60.279C99.7774 60.0969 99.7122 59.8828 99.7119 59.6641C99.7119 59.3737 99.8262 59.0953 100.03 58.8891C100.233 58.6822 100.51 58.5641 100.8 58.5601ZM101.728 116.016C101.726 116.172 101.68 116.325 101.595 116.456C101.509 116.586 101.388 116.69 101.245 116.753C101.102 116.817 100.944 116.838 100.79 116.815C100.635 116.791 100.491 116.724 100.373 116.621C100.256 116.518 100.171 116.383 100.128 116.233C100.085 116.083 100.086 115.923 100.131 115.773C100.176 115.624 100.263 115.49 100.381 115.389C100.5 115.287 100.645 115.221 100.8 115.2C100.912 115.191 101.025 115.206 101.132 115.243C101.239 115.28 101.336 115.339 101.419 115.415C101.502 115.492 101.568 115.585 101.612 115.688C101.657 115.791 101.68 115.903 101.68 116.016H101.728ZM102.096 139.648C103.056 138.896 105.888 136.56 106.736 137.296C107.584 138.032 106.848 139.584 106.736 141.792C108.512 142.64 112.192 144.256 110.752 145.28C109.342 145.969 107.829 146.423 106.272 146.624C106 148.944 106.016 150.128 105.232 150.528C104.688 150.784 103.488 149.808 103.04 149.392C102.179 148.657 101.425 147.807 100.8 146.864C99.3387 147.04 97.8614 147.04 96.3999 146.864C96.0159 146.768 95.7279 146.592 95.8079 146.208C95.9839 145.328 97.9679 143.456 98.6239 142.832C98.2079 141.92 97.2319 139.632 97.5679 138.72C98.0479 137.456 100.112 138.848 102.048 139.648H102.096ZM96.8959 88.0961C97.2319 88.0961 97.4079 88.3361 97.3599 88.7521C97.0253 89.9393 96.5186 91.0712 95.8559 92.1121C96.5421 92.8303 97.1286 93.6376 97.5999 94.5121C99.1999 97.6001 96.9759 96.8161 93.6799 96.1121C92.9029 97.2676 91.9149 98.2662 90.7679 99.0561C89.2799 99.7921 88.9439 96.6561 88.6879 94.8801C86.4319 94.2881 84.6399 94.3681 84.1759 93.4561C83.7119 92.5441 87.1679 91.1521 88.1599 90.7041C88.0479 89.1041 87.3599 86.9601 88.7359 87.0241C90.1305 87.4453 91.4111 88.1784 92.4799 89.1681C93.8861 88.5793 95.3768 88.2174 96.8959 88.0961ZM76.5119 132.8C76.3336 132.829 76.1512 132.819 75.9772 132.77C75.8029 132.721 75.6415 132.635 75.5039 132.518C75.3663 132.401 75.2557 132.255 75.1798 132.091C75.1042 131.927 75.0649 131.749 75.0649 131.568C75.0649 131.387 75.1042 131.209 75.1798 131.044C75.2557 130.881 75.3663 130.735 75.5039 130.618C75.6415 130.5 75.8029 130.415 75.9772 130.366C76.1512 130.317 76.3336 130.307 76.5119 130.336C76.6905 130.307 76.8732 130.317 77.0472 130.366C77.2211 130.415 77.3826 130.5 77.5202 130.618C77.6578 130.735 77.7683 130.881 77.8442 131.044C77.9199 131.209 77.9592 131.387 77.9592 131.568C77.9592 131.749 77.9199 131.927 77.8442 132.091C77.7683 132.255 77.6578 132.401 77.5202 132.518C77.3826 132.635 77.2211 132.721 77.0472 132.77C76.8732 132.819 76.6905 132.829 76.5119 132.8ZM67.4879 84.4641C67.4291 84.4492 67.3768 84.4155 67.3392 84.3675C67.302 84.3198 67.2816 84.2607 67.2816 84.1999C67.2816 84.1391 67.302 84.0801 67.3392 84.0324C67.3768 83.9846 67.4291 83.9506 67.4879 83.9361C70.9919 83.6961 74.9759 83.5841 78.4799 83.5841C75.5597 81.5358 72.4336 79.7982 69.1519 78.4001C69.0826 78.3785 69.0239 78.3317 68.9872 78.2689C68.9509 78.2057 68.9398 78.1313 68.9558 78.0606C68.9721 77.9896 69.0146 77.9273 69.0748 77.8866C69.1347 77.8456 69.208 77.829 69.2799 77.8401C72.9171 77.8788 76.4947 78.7663 79.7279 80.4321C77.6013 78.3128 75.352 76.3198 72.9919 74.4641C72.9416 74.423 72.9072 74.3652 72.8956 74.3012C72.884 74.2372 72.8959 74.1711 72.9285 74.115C72.9616 74.0588 73.0134 74.0164 73.0751 73.9954C73.1365 73.9742 73.2037 73.9759 73.2639 74.0001C77.2973 75.3004 81.0832 77.2693 84.4639 79.8241C87.8015 82.2695 90.6963 85.2673 93.0239 88.6881C93.0239 88.8321 92.8799 88.9441 92.7839 88.8001C90.4581 85.4014 87.5685 82.4254 84.2399 80.0001C81.2749 77.8252 78.0086 76.0952 74.5439 74.8641C75.7119 75.8081 80.4479 79.6641 81.0719 81.0881C81.1999 81.3441 80.8799 81.5841 80.6079 81.4241C78.8994 80.4722 77.0841 79.7257 75.1999 79.2001C73.732 78.7608 72.2178 78.4923 70.6879 78.4001C72.5279 79.2801 78.2399 82.0801 79.4079 83.7441C79.4381 83.7886 79.4547 83.8407 79.4568 83.8942C79.4588 83.9477 79.4457 84.0009 79.4189 84.0475C79.3925 84.0937 79.3535 84.1321 79.3061 84.1577C79.2589 84.1833 79.2057 84.195 79.1519 84.1921C78.9759 84.1921 74.5599 84.1921 69.8719 84.3521C75.4079 85.4081 82.6719 87.4401 87.2959 90.7521C87.4239 90.8481 87.2959 91.0401 87.1359 90.9441C82.1119 87.4401 73.4239 85.2641 67.4879 84.4641ZM158.08 117.504C163.536 113.392 174.352 112.304 179.088 117.504C180.483 118.864 181.579 120.5 182.307 122.307C183.033 124.114 183.376 126.053 183.312 128C182.939 131.529 181.422 134.839 178.992 137.424C178.704 137.712 178.704 137.424 178.8 137.28C179.076 136.884 179.257 136.432 179.333 135.956C179.409 135.48 179.377 134.993 179.239 134.532C179.1 134.071 178.86 133.647 178.535 133.291C178.209 132.936 177.808 132.659 177.36 132.48C174.336 131.104 173.424 136.176 171.216 136.8C169.296 137.36 170.016 132.88 170.16 129.888C170.361 128.573 170.059 127.23 169.312 126.128C167.982 124.702 166.34 123.606 164.512 122.928C161.308 121.638 157.829 121.181 154.4 121.6C155.336 119.999 156.588 118.605 158.08 117.504ZM154.288 141.36C151.648 135.12 152.8 126.832 152.8 126.832C152.929 125.149 153.415 123.513 154.224 122.032C157.681 121.681 161.171 122.232 164.352 123.632C166.083 124.28 167.643 125.314 168.912 126.656C170.512 128.768 168.912 132.8 169.424 135.952C169.616 137.184 170.192 137.968 171.392 137.552C173.872 136.848 174.704 132.144 177.088 133.232C179.472 134.32 179.04 137.44 176.224 138.624C175.136 139.088 175.232 140.128 176.064 140.224C176.496 140.224 177.344 139.984 178.64 138.944C180.539 137.089 182.03 134.861 183.024 132.4C185.249 132.87 187.401 133.633 189.424 134.672C192.272 135.968 195.632 137.776 198.288 139.328C194.24 140.293 190.551 142.389 187.649 145.373C184.748 148.356 182.756 152.103 181.904 156.176C181.296 156.176 181.344 155.312 180.928 154.992C180.512 154.672 180.256 154.992 179.76 155.152C179.771 154.757 179.683 154.368 179.504 154.016C179.504 153.088 177.984 153.632 177.104 153.92C177.115 153.523 177.054 153.128 176.928 152.752C177.296 151.568 175.152 152.16 173.952 152.496C174.043 152.041 174.043 151.575 173.952 151.12C174.064 150.192 172.032 150.784 171.184 151.12C171.257 150.585 171.224 150.041 171.088 149.52C170.64 148.896 168.272 150.208 168.176 149.616C168.184 149.177 168.27 148.744 168.432 148.336C168.704 147.36 167.376 147.968 166.992 147.904C166.977 147.912 166.961 147.917 166.944 147.917C166.926 147.917 166.91 147.912 166.896 147.904V147.712C168.235 147.345 169.52 146.808 170.72 146.112C171.331 147.011 172.245 147.659 173.296 147.936C174.251 148.22 175.267 148.223 176.222 147.944C177.179 147.664 178.033 147.113 178.684 146.36C179.335 145.607 179.753 144.68 179.891 143.695C180.028 142.708 179.877 141.703 179.456 140.8C179.456 140.624 179.104 140.8 179.184 140.912C179.392 141.525 179.472 142.173 179.422 142.819C179.373 143.464 179.193 144.092 178.894 144.667C178.595 145.24 178.183 145.748 177.683 146.159C177.182 146.569 176.605 146.875 175.984 147.056L172.112 144.672C171.968 144.576 171.984 144.672 171.136 145.216C170.604 144.165 170.461 142.961 170.733 141.815C171.006 140.669 171.676 139.659 172.624 138.96C173.742 138.211 175.072 137.84 176.416 137.904C176.448 137.893 176.476 137.873 176.496 137.845C176.516 137.819 176.526 137.785 176.526 137.752C176.526 137.719 176.516 137.685 176.496 137.659C176.476 137.631 176.448 137.611 176.416 137.6C174.976 137.425 173.517 137.735 172.272 138.48C171.141 139.231 170.329 140.376 169.996 141.692C169.661 143.007 169.828 144.4 170.464 145.6C167.628 147.213 164.375 147.944 161.12 147.696C159.56 147.257 158.126 146.455 156.939 145.353C155.751 144.251 154.843 142.883 154.288 141.36ZM179.2 155.568C179.62 155.477 180.029 155.339 180.416 155.152C181.12 154.896 180.928 156.304 181.824 156.32C181.664 157.072 181.568 157.664 181.52 158.032C180.768 157.76 180.064 157.456 179.36 157.168C179.39 156.629 179.337 156.089 179.2 155.568ZM179.2 155.216C179.2 155.216 179.2 155.136 179.36 154.592C179.4 154.793 179.481 154.984 179.6 155.152L179.2 155.2V155.216ZM179.04 155.52C178.958 156.051 178.958 156.589 179.04 157.12C177.92 156.656 176.88 156.176 175.84 155.696C175.84 155.393 175.78 155.095 175.664 154.816C176.4 154.816 178.864 153.632 178.976 153.984C179.088 154.336 178.512 155.2 179.04 155.52ZM175.504 154.704C175.501 154.953 175.539 155.203 175.616 155.44C175.2 155.248 173.488 154.384 173.056 154.16C173.048 153.819 172.995 153.479 172.896 153.152C173.854 153.02 174.803 152.811 175.728 152.528C175.84 152.528 176.56 152.432 176.496 152.528C176.432 152.992 174.8 154.336 175.504 154.704ZM172.704 153.968C171.888 153.536 171.104 153.12 170.496 152.736C170.507 152.396 170.446 152.059 170.32 151.744C170.579 151.788 170.843 151.743 171.072 151.616C171.808 151.281 172.601 151.091 173.408 151.056C173.069 151.447 172.78 151.876 172.544 152.336C172.481 152.885 172.536 153.441 172.704 153.968ZM170.128 152.528L168.352 151.456C168.388 150.981 168.34 150.505 168.208 150.048C168.72 150.16 170.048 149.632 170.656 149.68C170.366 150.072 170.105 150.484 169.872 150.912C169.872 151.461 169.959 152.007 170.128 152.528ZM170.816 150.208C170.776 150.527 170.776 150.849 170.816 151.168C170.704 151.168 170.336 151.344 170.304 151.168C170.272 150.992 170.624 150.4 170.816 150.208ZM173.632 151.584C173.623 151.897 173.66 152.211 173.744 152.512C173.499 152.603 173.239 152.652 172.976 152.656C172.976 152.656 172.912 152.432 173.632 151.584ZM176.704 153.184C176.725 153.447 176.784 153.705 176.88 153.952C176.561 154.073 176.236 154.175 175.904 154.256C176.096 153.968 176.352 153.6 176.704 153.168V153.184ZM167.888 149.856C167.88 150.336 167.94 150.816 168.064 151.28C167.792 151.113 167.524 150.937 167.264 150.752L166.896 148.064C167.296 148.064 168.128 147.824 168.128 148.064C168.128 148.304 167.456 149.36 167.888 149.84V149.856ZM171.312 145.536C171.536 145.392 171.776 145.216 172 145.04L175.52 147.2C174.739 147.357 173.929 147.291 173.185 147.007C172.441 146.724 171.792 146.236 171.312 145.6V145.536ZM154.176 159.744C153.792 159.632 156 156.208 156.256 155.808C157.04 154.544 160.832 148.688 161.152 148.208C162.475 148.285 163.801 148.205 165.104 147.968C165.36 157.44 167.072 161.376 169.152 165.072C168.08 164.736 166.992 165.232 166.048 164.896C164.72 164.448 164.768 162.528 162.848 162.416C161.593 162.564 160.387 162.984 159.312 163.648C158.88 163.824 158.784 163.648 158.672 163.456C158.513 162.373 158.279 161.304 157.968 160.256C157.232 158.992 154.928 160 154.176 159.744ZM114.288 205.696L121.84 210.256C121.4 210.672 120.924 211.047 120.416 211.376C119.184 212.032 117.904 211.536 117.888 212.512C110.992 215.152 100.608 227.328 113.552 238.448C130.096 252.64 148.928 258.304 131.408 271.84C126.608 275.6 121.664 275.04 115.952 271.344C109.68 267.232 109.744 249.12 103.728 237.936C93.7279 219.328 89.5999 225.6 70.2719 211.616L114.288 205.696ZM136.512 272.896C136.491 272.896 136.471 272.892 136.451 272.884C136.432 272.876 136.413 272.864 136.398 272.849C136.384 272.835 136.372 272.816 136.364 272.797C136.356 272.777 136.352 272.757 136.352 272.736C136.352 272.715 136.356 272.695 136.364 272.675C136.372 272.655 136.384 272.637 136.398 272.623C136.413 272.608 136.432 272.596 136.451 272.588C136.471 272.58 136.491 272.576 136.512 272.576C136.544 272.587 136.572 272.607 136.592 272.635C136.612 272.661 136.622 272.695 136.622 272.728C136.622 272.761 136.612 272.795 136.592 272.821C136.572 272.849 136.544 272.869 136.512 272.88V272.896ZM128.32 277.696C128.253 277.708 128.184 277.707 128.118 277.689C128.052 277.672 127.991 277.64 127.938 277.597C127.886 277.553 127.843 277.499 127.814 277.437C127.785 277.376 127.77 277.308 127.77 277.24C127.77 277.172 127.785 277.104 127.814 277.043C127.843 276.981 127.886 276.927 127.938 276.883C127.991 276.839 128.052 276.808 128.118 276.791C128.184 276.773 128.253 276.772 128.32 276.784C128.45 276.784 128.574 276.836 128.665 276.927C128.757 277.019 128.808 277.143 128.808 277.272C128.808 277.401 128.757 277.525 128.665 277.617C128.574 277.708 128.45 277.76 128.32 277.76V277.696ZM107.712 276.576C107.876 276.101 108.119 275.657 108.432 275.264C107.712 274.272 107.28 273.776 108.528 273.84C108.894 273.867 109.254 273.943 109.6 274.064C110.88 272.656 111.104 272.752 111.056 274.672C111.376 274.832 112.128 275.216 112.272 275.536C112.416 275.856 111.6 276.048 111.024 276.224C111.024 276.608 110.88 277.824 110.512 277.824C110.144 277.824 109.936 277.232 109.456 276.624C108.8 276.8 107.632 277.216 107.712 276.64V276.576ZM107.504 256.192C107.437 256.204 107.368 256.203 107.302 256.185C107.236 256.168 107.175 256.136 107.122 256.093C107.07 256.049 107.027 255.995 106.998 255.933C106.969 255.872 106.954 255.804 106.954 255.736C106.954 255.668 106.969 255.6 106.998 255.539C107.027 255.477 107.07 255.423 107.122 255.379C107.175 255.335 107.236 255.304 107.302 255.287C107.368 255.269 107.437 255.268 107.504 255.28C107.634 255.28 107.758 255.332 107.849 255.423C107.941 255.515 107.992 255.639 107.992 255.768C107.992 255.897 107.941 256.021 107.849 256.113C107.758 256.204 107.634 256.256 107.504 256.256V256.192ZM88.1759 232.992C88.109 233.004 88.04 233.003 87.974 232.985C87.908 232.968 87.8466 232.936 87.7939 232.893C87.7416 232.849 87.6994 232.795 87.6703 232.733C87.6415 232.672 87.6264 232.604 87.6264 232.536C87.6264 232.468 87.6415 232.4 87.6703 232.339C87.6994 232.277 87.7416 232.223 87.7939 232.179C87.8466 232.135 87.908 232.104 87.974 232.087C88.04 232.069 88.109 232.068 88.1759 232.08C88.2431 232.068 88.312 232.069 88.3781 232.087C88.4441 232.104 88.5055 232.135 88.5581 232.179C88.6105 232.223 88.6527 232.277 88.6818 232.339C88.7109 232.4 88.726 232.468 88.726 232.536C88.726 232.604 88.7109 232.672 88.6818 232.733C88.6527 232.795 88.6105 232.849 88.5581 232.893C88.5055 232.936 88.4441 232.968 88.3781 232.985C88.312 233.003 88.2431 233.004 88.1759 232.992ZM81.7759 223.008C81.709 223.02 81.64 223.019 81.574 223.001C81.508 222.984 81.4466 222.952 81.3939 222.909C81.3416 222.865 81.2994 222.811 81.2703 222.749C81.2415 222.688 81.2264 222.62 81.2264 222.552C81.2264 222.484 81.2415 222.416 81.2703 222.355C81.2994 222.293 81.3416 222.239 81.3939 222.195C81.4466 222.151 81.508 222.12 81.574 222.103C81.64 222.085 81.709 222.083 81.7759 222.096C81.8422 222.08 81.9109 222.08 81.9775 222.093C82.0438 222.108 82.1064 222.136 82.1608 222.176C82.2152 222.217 82.2597 222.269 82.2917 222.329C82.3237 222.389 82.3423 222.456 82.3458 222.523C82.3493 222.591 82.3379 222.659 82.3123 222.721C82.287 222.785 82.2477 222.841 82.1983 222.888C82.1485 222.933 82.0892 222.968 82.0246 222.989C81.96 223.011 81.8914 223.016 81.8239 223.008H81.7759ZM63.0079 219.808C63.0751 219.796 63.144 219.797 63.2101 219.815C63.2761 219.832 63.3375 219.863 63.3901 219.907C63.4425 219.951 63.4847 220.005 63.5138 220.067C63.5429 220.128 63.558 220.196 63.558 220.264C63.558 220.332 63.5429 220.4 63.5138 220.461C63.4847 220.523 63.4425 220.577 63.3901 220.621C63.3375 220.664 63.2761 220.696 63.2101 220.713C63.144 220.731 63.0751 220.732 63.0079 220.72C62.9407 220.728 62.8723 220.723 62.8077 220.701C62.7429 220.68 62.6838 220.645 62.6341 220.6C62.5843 220.553 62.5453 220.497 62.5197 220.433C62.4944 220.371 62.4831 220.303 62.4863 220.235C62.4901 220.168 62.5084 220.101 62.5404 220.041C62.5724 219.981 62.6172 219.929 62.6713 219.888C62.7257 219.848 62.7882 219.82 62.8549 219.805C62.9212 219.792 62.9901 219.792 63.0559 219.808H63.0079ZM52.4639 187.808C53.1257 187.275 53.8797 186.868 54.6879 186.608C54.6879 184.528 54.5279 183.408 56.1759 184.64C56.6573 185.032 57.0876 185.484 57.4559 185.984C58.1989 185.759 58.9683 185.636 59.7439 185.616C59.9679 185.616 60.1119 185.744 60.0959 185.968C59.8227 186.793 59.4114 187.567 58.8799 188.256C59.3416 188.973 59.6266 189.791 59.7119 190.64C59.5679 191.424 58.3359 190.736 57.3439 190.448C56.9119 190.96 55.5839 192.656 55.0879 192.272C54.5919 191.888 54.8639 190.896 54.7999 189.552C53.8239 189.2 51.8399 188.56 52.5119 187.808H52.4639ZM46.5759 201.92C46.6431 201.907 46.712 201.909 46.7781 201.927C46.8441 201.944 46.9055 201.975 46.9581 202.019C47.0105 202.063 47.0527 202.117 47.0818 202.179C47.1109 202.24 47.126 202.308 47.126 202.376C47.126 202.444 47.1109 202.512 47.0818 202.573C47.0527 202.635 47.0105 202.689 46.9581 202.733C46.9055 202.776 46.8441 202.808 46.7781 202.825C46.712 202.843 46.6431 202.844 46.5759 202.832C46.5087 202.84 46.4403 202.835 46.3757 202.813C46.3109 202.792 46.2518 202.757 46.2021 202.712C46.1523 202.665 46.1133 202.609 46.0877 202.545C46.0624 202.483 46.0511 202.415 46.0543 202.347C46.0581 202.28 46.0764 202.213 46.1084 202.153C46.1404 202.093 46.1852 202.041 46.2393 202C46.2937 201.96 46.3563 201.932 46.4229 201.917C46.4892 201.904 46.5581 201.904 46.6239 201.92H46.5759ZM200.896 255.056C195.04 262.688 107.6 305.12 99.0879 309.231C79.1039 285.504 47.9999 242.24 29.7599 216.992L46.2399 214.832C56.5119 231.04 72.2559 227.28 80.7039 232.432C90.2079 238.24 95.1039 242.624 97.9839 253.888C101.904 269.2 96.9602 275.808 108.416 280.688C119.392 285.344 141.184 283.472 150.016 268.32C158.848 253.168 141.552 246.544 126.016 239.52C110.48 232.496 113.216 222.768 115.328 220.016C116.941 217.923 118.812 216.04 120.896 214.416C121.685 214.419 122.46 214.215 123.145 213.824C123.83 213.435 124.4 212.872 124.8 212.192C126.672 213.2 197.68 253.216 200.944 255.056H200.896ZM141.696 273.92C141.717 273.92 141.737 273.924 141.757 273.932C141.777 273.94 141.795 273.952 141.809 273.967C141.824 273.981 141.836 273.999 141.844 274.019C141.852 274.039 141.856 274.059 141.856 274.08C141.856 274.101 141.852 274.121 141.844 274.141C141.836 274.16 141.824 274.179 141.809 274.193C141.795 274.208 141.777 274.22 141.757 274.228C141.737 274.236 141.717 274.24 141.696 274.24C141.675 274.239 141.655 274.233 141.636 274.225C141.616 274.216 141.6 274.203 141.585 274.188C141.571 274.172 141.56 274.153 141.553 274.133C141.547 274.113 141.543 274.093 141.544 274.072C141.545 274.051 141.55 274.031 141.56 274.011C141.568 273.992 141.581 273.975 141.597 273.961C141.612 273.947 141.63 273.936 141.651 273.929C141.671 273.923 141.691 273.919 141.712 273.92H141.696ZM145.792 257.712C145.6 257.84 145.312 257.712 144.864 257.488C144.16 258.272 143.824 258.496 143.904 257.168C143.216 256.944 142.832 256.832 143.472 256.464C143.664 256.36 143.868 256.279 144.08 256.224C144.256 255.12 144.4 255.104 145.008 256.032C145.303 255.96 145.609 255.96 145.904 256.032C146.128 256.16 145.76 256.464 145.504 256.768C145.6 256.992 145.984 257.6 145.808 257.712H145.792ZM122.176 213.456C121.559 213.66 120.897 213.685 120.265 213.529C119.635 213.373 119.06 213.044 118.608 212.576H118.752C121.776 212.112 121.328 210.864 122.896 210.096C123.04 210.256 122.896 210.208 125.44 210.4C124.798 211.809 123.625 212.908 122.176 213.456ZM125.872 207.056C125.641 207.487 125.551 207.98 125.616 208.464C125.616 208.576 125.504 209.088 125.44 209.568L123.712 209.424C123.712 209.344 124.848 206.64 124.928 206.384H126.016L125.872 207.056ZM125.552 202.56C124.448 204.624 123.952 208.464 122.976 207.792C122.635 207.439 122.441 206.971 122.432 206.48C122.381 205.557 122.511 204.633 122.816 203.76C123.077 202.844 123.536 201.996 124.161 201.277C124.786 200.559 125.561 199.985 126.432 199.6C125.584 202.864 125.824 202.128 125.552 202.624V202.56ZM126.704 204.976C126.96 204.224 127.312 203.12 127.808 201.68C128.016 201.568 128.064 201.68 128.336 202.352C128.768 203.472 126.24 206.32 126.24 206.32C126.4 205.856 126.576 205.408 126.704 205.04V204.976ZM171.888 177.248C166.24 185.744 162.048 189.552 155.456 193.248C149.031 196.667 142.197 199.257 135.12 200.96C132.272 201.84 129.888 208.16 126.768 208.448C126.416 208.448 126.176 208.448 126.464 207.648C127.184 205.648 129.792 203.984 129.04 202.08C128.944 201.793 128.816 201.52 128.656 201.264C128.526 201.055 128.329 200.896 128.096 200.816C128.192 200.496 128.512 199.568 128.944 198.256C129.312 198 129.568 197.92 131.248 196.928C136.88 193.6 139.088 187.632 143.824 182.048C146.325 178.988 149.245 176.295 152.496 174.048C152.736 173.904 152.336 174.144 154.192 168.288C155.264 164.912 156.512 161.344 156.88 160.288C156.949 160.297 157.016 160.323 157.073 160.361C157.132 160.4 157.181 160.452 157.216 160.512C157.632 161.296 157.552 162.8 157.904 163.712C158.736 165.728 160.8 163.024 162.704 163.072C164.304 163.072 164.304 164.912 165.904 165.376C167.104 165.728 168.304 164.992 169.424 165.52C170.892 168.015 172.619 170.348 174.576 172.48C173.849 174.179 172.948 175.799 171.888 177.312V177.248ZM181.712 177.76C176.869 174.297 172.821 169.841 169.84 164.688C167.872 161.264 166.048 157.44 165.424 147.84C165.801 147.775 166.176 147.688 166.544 147.584L166.88 150.784C168.643 152.119 170.504 153.316 172.448 154.368C172.448 154.368 171.088 162.064 177.248 171.968C180.208 176.832 181.712 177.824 181.712 177.824V177.76ZM211.456 198.4C211.744 201.888 208.576 220.928 208.144 223.52C208.119 223.529 208.096 223.544 208.076 223.564C208.057 223.583 208.041 223.607 208.032 223.632C208.24 222.848 204.64 234.96 204.368 238.752C204.368 239.056 204.368 238.912 207.104 241.28C208.032 242.096 211.216 244.8 211.376 245.744C211.449 245.989 211.449 246.251 211.376 246.496C209.947 244.981 208.241 243.755 206.352 242.88C206.318 242.859 206.277 242.852 206.238 242.861C206.199 242.869 206.165 242.893 206.144 242.928C206.123 242.961 206.116 243.003 206.125 243.041C206.135 243.081 206.158 243.115 206.192 243.136L207.488 244.192C208.784 245.072 209.976 246.097 211.04 247.248C210.88 247.648 210.528 247.68 210.112 247.568C210.112 246.736 206.464 244.72 205.312 244.032C205.136 243.936 204.976 244.192 205.152 244.288C206.759 245.216 208.256 246.321 209.616 247.584C209.104 248.736 207.552 247.088 201.904 244.768C200.887 244.311 199.809 243.997 198.704 243.84C198.629 243.835 198.555 243.853 198.492 243.895C198.428 243.935 198.379 243.993 198.352 244.064C198.208 244.48 198.656 244.464 200.096 245.92C200.403 246.188 200.667 246.501 200.88 246.848C199.921 246.961 198.953 246.735 198.144 246.208C197.502 245.779 196.997 245.177 196.685 244.472C196.373 243.767 196.269 242.987 196.384 242.224C196.656 240.624 198.24 239.808 197.584 238.384C196.928 236.96 195.584 227.712 195.392 226.384C193.616 214.368 194.288 214.112 193.952 214.016C193.952 197.344 194.48 197.28 194.352 196.416C194.352 196.24 190.768 171.632 190.736 171.44C191.792 171.44 192.544 172.608 193.136 173.568C194 174.944 194.736 175.84 196.464 175.312C198.192 174.784 199.664 173.328 201.264 172.752C202.864 172.176 203.712 172.752 205.456 173.312C206.128 173.633 206.887 173.724 207.616 173.571C208.344 173.417 209.003 173.028 209.488 172.464C212.272 170.144 210.96 169.568 216.656 171.808C215.552 176.112 213.072 188.272 213.024 188.464C212.013 191.68 211.485 195.028 211.456 198.4ZM190.544 170.656C189.289 171.109 188.065 171.643 186.88 172.256C186.608 172.256 186.496 172.256 186.416 171.936C185.92 169.648 191.744 142.56 206.256 141.536C212.88 141.088 217.456 152.976 219.456 159.312C220.772 163.339 221.793 167.457 222.512 171.632C222.8 174.528 214.352 169.104 211.92 169.664C210.96 169.888 210.528 170.704 209.152 171.856C207.776 173.008 207.072 173.008 205.856 172.576C204.42 171.789 202.736 171.583 201.152 172C199.456 172.608 198.048 174.032 196.352 174.56C194.912 175.024 194.464 174.032 193.648 172.752C192.832 171.472 192 170.384 190.544 170.592V170.656ZM214.384 185.76C215.056 183.104 216.24 177.6 217.12 171.84C218.592 172.416 221.808 173.824 222.88 172.8C223.04 172.629 223.155 172.421 223.216 172.196C223.277 171.969 223.283 171.732 223.232 171.504C222.652 168.127 221.851 164.792 220.832 161.52C218.688 154.4 213.68 140.72 206.224 141.184C191.088 142.24 185.184 169.552 185.696 172.016C185.71 172.175 185.761 172.327 185.845 172.463C185.928 172.599 186.041 172.713 186.176 172.799C186.311 172.883 186.462 172.936 186.621 172.953C186.779 172.971 186.939 172.951 187.088 172.896C188 172.672 189.296 171.68 190.48 171.408C190.656 174.32 190.992 178.192 191.696 183.2C188.997 182.139 186.391 180.853 183.904 179.36C178.884 174.484 175.345 168.289 173.696 161.488C173.133 159.263 172.812 156.983 172.736 154.688C175.641 156.311 178.657 157.727 181.76 158.928C181.812 158.948 181.867 158.956 181.923 158.951C181.977 158.945 182.03 158.928 182.077 158.897C182.124 158.868 182.163 158.828 182.192 158.78C182.22 158.733 182.236 158.679 182.24 158.624C182.825 154.104 184.741 149.86 187.744 146.432C190.804 143.041 194.869 140.72 199.344 139.808C199.416 139.796 199.483 139.761 199.534 139.711C199.587 139.659 199.621 139.592 199.633 139.52C199.646 139.448 199.636 139.373 199.604 139.308C199.572 139.241 199.52 139.187 199.456 139.152C196.286 137.323 193.017 135.672 189.664 134.208C187.587 133.243 185.408 132.513 183.168 132.032C183.601 130.838 183.892 129.598 184.032 128.336C187.232 126.976 203.376 128.976 214.256 127.84C215.904 127.738 217.539 127.476 219.136 127.056C228.944 126.784 243.712 138.848 246.432 144.288C249.152 149.728 248.72 156.528 242.688 164.992C237.008 172.912 216.592 184.464 214.4 185.696L214.384 185.76ZM257.92 218.064C260.144 211.056 256.624 204.496 255.36 202.464L265.952 202.176C267.316 202.983 268.356 204.239 268.896 205.728C269.764 207.959 270.225 210.327 270.256 212.72C267.088 214.144 261.216 216.832 257.92 218V218.064ZM270.944 212.288C270.856 209.944 270.313 207.64 269.344 205.504C268.702 203.997 267.576 202.747 266.144 201.952C266.782 201.267 267.556 200.721 268.416 200.352C268.416 200.864 267.792 201.952 268.544 202.064C269.296 202.176 269.376 201.44 269.84 201.2C270.032 201.104 270.416 201.088 270.256 201.504C270.096 201.92 269.744 202.544 270.112 203.104C270.382 203.423 270.756 203.637 271.168 203.712C271.264 203.712 270.624 204.16 270.448 204.672C270.407 204.793 270.413 204.925 270.467 205.041C270.52 205.159 270.617 205.249 270.736 205.296C271.28 205.504 272.224 204.96 272.816 205.552C273.056 205.808 272.928 206.048 272.624 206.224C271.888 206.688 271.792 207.232 272.48 207.824C272.825 208.064 273.133 208.356 273.392 208.688C272.889 208.684 272.4 208.848 272 209.152C271.924 209.211 271.863 209.285 271.82 209.371C271.777 209.457 271.755 209.552 271.755 209.648C271.755 209.744 271.777 209.839 271.82 209.924C271.863 210.011 271.924 210.085 272 210.144C272.352 210.448 273.216 210.768 273.408 211.04C272.647 211.548 271.817 211.947 270.944 212.224V212.288ZM290.352 201.216C289.696 203.888 275.296 210.336 274.272 210.816C274.096 210.192 273.088 209.888 272.672 209.584C273.12 209.344 274.016 209.44 274.192 208.88C274.368 208.32 273.12 207.392 272.832 207.024C273.104 206.768 274.08 206.304 273.648 205.424C273.452 205.093 273.156 204.833 272.801 204.68C272.448 204.528 272.056 204.492 271.68 204.576H271.44C271.792 204.128 272.368 203.552 271.84 203.168C271.312 202.784 270.96 203.168 270.688 202.64C272.208 202.832 273.456 203.04 274.416 203.248C274.448 203.252 274.481 203.251 274.512 203.241C274.542 203.232 274.572 203.216 274.596 203.195C274.62 203.173 274.64 203.147 274.652 203.117C274.665 203.088 274.672 203.056 274.672 203.024C274.672 203.664 274.224 199.328 276.496 198.816C277.511 198.709 278.536 198.853 279.481 199.235C280.428 199.617 281.265 200.227 281.92 201.008C281.957 201.055 282.008 201.091 282.064 201.109C282.121 201.129 282.181 201.133 282.24 201.12C282.832 201.008 287.744 200 289.712 200.72C289.936 200.704 290.4 200.928 290.352 201.152V201.216Z" fill="black"/>
</svg>
