<svg width="14" height="15" viewBox="0 0 14 15" fill="none" xmlns="http://www.w3.org/2000/svg">
<path d="M4.47742 7.32323C5.09949 7.32323 5.69608 7.07611 6.13595 6.63624C6.57582 6.19637 6.82293 5.59978 6.82293 4.97771C6.82293 4.35565 6.57582 3.75906 6.13595 3.31919C5.69608 2.87932 5.09949 2.6322 4.47742 2.6322C3.85535 2.6322 3.25876 2.87932 2.81889 3.31919C2.37903 3.75906 2.13191 4.35565 2.13191 4.97771C2.13191 5.59978 2.37903 6.19637 2.81889 6.63624C3.25876 7.07611 3.85535 7.32323 4.47742 7.32323ZM9.80813 7.32323C10.2605 7.32323 10.6944 7.14351 11.0143 6.8236C11.3342 6.5037 11.514 6.06981 11.514 5.6174C11.514 5.16499 11.3342 4.7311 11.0143 4.4112C10.6944 4.09129 10.2605 3.91157 9.80813 3.91157C9.35572 3.91157 8.92183 4.09129 8.60193 4.4112C8.28202 4.7311 8.1023 5.16499 8.1023 5.6174C8.1023 6.06981 8.28202 6.5037 8.60193 6.8236C8.92183 7.14351 9.35572 7.32323 9.80813 7.32323ZM2.13191 8.17614C1.7926 8.17614 1.46719 8.31093 1.22726 8.55086C0.98733 8.79079 0.852539 9.1162 0.852539 9.45551V9.51948C0.852539 9.51948 0.852539 12.0143 4.47742 12.0143C8.1023 12.0143 8.1023 9.51948 8.1023 9.51948V9.45551C8.1023 9.1162 7.96751 8.79079 7.72759 8.55086C7.48766 8.31093 7.16224 8.17614 6.82293 8.17614H2.13191ZM9.80813 11.1613C9.18721 11.1613 8.69593 11.0769 8.30658 10.9426C8.49081 10.644 8.59657 10.3562 8.65627 10.1238C8.69979 9.95674 8.72735 9.78596 8.73858 9.61373C8.73943 9.59667 8.74028 9.58132 8.74028 9.56809L8.74071 9.55018V9.45551C8.74146 8.9834 8.56753 8.5277 8.25242 8.17614H11.7668C11.9016 8.17608 12.0351 8.20258 12.1596 8.25412C12.2842 8.30566 12.3973 8.38123 12.4927 8.47651C12.588 8.5718 12.6636 8.68493 12.7152 8.80944C12.7668 8.93396 12.7933 9.06742 12.7933 9.20219C12.7933 9.20219 12.7933 11.1613 9.80813 11.1613Z" fill="#96999E"/>
</svg>
