<svg width="9" height="9" viewBox="0 0 9 9" fill="none" xmlns="http://www.w3.org/2000/svg">
<path d="M8.1135 7.54759C8.15066 7.58475 8.18014 7.62887 8.20025 7.67742C8.22036 7.72598 8.23071 7.77802 8.23071 7.83057C8.23071 7.88313 8.22036 7.93517 8.20025 7.98372C8.18014 8.03228 8.15066 8.0764 8.1135 8.11356C8.07633 8.15072 8.03222 8.1802 7.98366 8.20031C7.93511 8.22042 7.88307 8.23077 7.83051 8.23077C7.77796 8.23077 7.72592 8.22042 7.67736 8.20031C7.62881 8.1802 7.58469 8.15072 7.54753 8.11356L4.23071 4.79624L0.913897 8.11356C0.838845 8.18861 0.737053 8.23077 0.630913 8.23077C0.524773 8.23077 0.422981 8.18861 0.347929 8.11356C0.272877 8.03851 0.230713 7.93671 0.230713 7.83057C0.230713 7.72443 0.272877 7.62264 0.347929 7.54759L3.66524 4.23077L0.347929 0.913958C0.272877 0.838906 0.230713 0.737114 0.230713 0.630974C0.230713 0.524834 0.272877 0.423042 0.347929 0.34799C0.422981 0.272938 0.524773 0.230774 0.630913 0.230774C0.737053 0.230774 0.838845 0.272938 0.913897 0.34799L4.23071 3.66531L7.54753 0.34799C7.62258 0.272938 7.72437 0.230774 7.83051 0.230774C7.93665 0.230774 8.03844 0.272938 8.1135 0.34799C8.18855 0.423042 8.23071 0.524834 8.23071 0.630974C8.23071 0.737114 8.18855 0.838906 8.1135 0.913958L4.79618 4.23077L8.1135 7.54759Z" fill="white"/>
</svg>
