<svg width="23" height="19" viewBox="0 0 23 19" fill="none" xmlns="http://www.w3.org/2000/svg">
<path d="M7.20215 9.49976C8.34175 9.49976 9.43468 9.04705 10.2405 8.24123C11.0463 7.43541 11.499 6.34248 11.499 5.20288C11.499 4.06328 11.0463 2.97035 10.2405 2.16453C9.43468 1.35871 8.34175 0.906006 7.20215 0.906006C6.06255 0.906006 4.96962 1.35871 4.1638 2.16453C3.35798 2.97035 2.90527 4.06328 2.90527 5.20288C2.90527 6.34248 3.35798 7.43541 4.1638 8.24123C4.96962 9.04705 6.06255 9.49976 7.20215 9.49976ZM16.9678 9.49976C17.7966 9.49976 18.5914 9.17052 19.1775 8.58446C19.7635 7.99841 20.0928 7.20356 20.0928 6.37476C20.0928 5.54595 19.7635 4.7511 19.1775 4.16505C18.5914 3.579 17.7966 3.24976 16.9678 3.24976C16.139 3.24976 15.3441 3.579 14.7581 4.16505C14.172 4.7511 13.8428 5.54595 13.8428 6.37476C13.8428 7.20356 14.172 7.99841 14.7581 8.58446C15.3441 9.17052 16.139 9.49976 16.9678 9.49976ZM2.90527 11.0623C2.28367 11.0623 1.68753 11.3092 1.24799 11.7487C0.808454 12.1883 0.561523 12.7844 0.561523 13.406V13.5232C0.561523 13.5232 0.561523 18.0935 7.20215 18.0935C13.8428 18.0935 13.8428 13.5232 13.8428 13.5232V13.406C13.8428 12.7844 13.5958 12.1883 13.1563 11.7487C12.7168 11.3092 12.1206 11.0623 11.499 11.0623H2.90527ZM16.9678 16.531C15.8303 16.531 14.9303 16.3763 14.217 16.1302C14.5545 15.5833 14.7482 15.056 14.8576 14.6302C14.9374 14.3242 14.9878 14.0114 15.0084 13.6958C15.01 13.6646 15.0115 13.6365 15.0115 13.6123L15.0123 13.5794V13.406C15.0137 12.5411 14.6951 11.7063 14.1178 11.0623H20.5561C20.803 11.0622 21.0475 11.1107 21.2756 11.2051C21.5038 11.2995 21.7111 11.438 21.8857 11.6125C22.0603 11.7871 22.1989 11.9943 22.2934 12.2224C22.3879 12.4505 22.4365 12.695 22.4365 12.9419C22.4365 12.9419 22.4365 16.531 16.9678 16.531Z" fill="#5F5F60"/>
</svg>
