<svg width="35" height="33" viewBox="0 0 35 33" fill="none" xmlns="http://www.w3.org/2000/svg">
<path d="M9.38178 5.05097C11.6684 8.77197 12.8789 13.0539 12.8789 17.4214C12.8789 21.7888 11.6684 26.0708 9.38178 29.7917" stroke="black" stroke-width="6.18519" stroke-linecap="round" stroke-linejoin="round"/>
<path d="M7.09295 3.99986C5.38496 3.99986 4.00036 5.38447 4.00036 7.09246C4.00036 8.80046 5.38496 10.1851 7.09295 10.1851C8.80095 10.1851 10.1855 8.80046 10.1855 7.09246C10.1855 5.38447 8.80095 3.99986 7.09295 3.99986Z" stroke="black" stroke-width="6.18519" stroke-linecap="round" stroke-linejoin="round"/>
<path d="M27.998 5.05097C30.2846 8.77197 31.4951 13.0539 31.4951 17.4214C31.4951 21.7888 30.2846 26.0708 27.998 29.7917" stroke="black" stroke-width="6.18519" stroke-linecap="round" stroke-linejoin="round"/>
<path d="M25.7082 3.99986C24.0002 3.99986 22.6156 5.38447 22.6156 7.09246C22.6156 8.80046 24.0002 10.1851 25.7082 10.1851C27.4162 10.1851 28.8008 8.80046 28.8008 7.09246C28.8008 5.38447 27.4162 3.99986 25.7082 3.99986Z" stroke="black" stroke-width="6.18519" stroke-linecap="round" stroke-linejoin="round"/>
</svg>
