<svg width="14" height="15" viewBox="0 0 14 15" fill="none" xmlns="http://www.w3.org/2000/svg">
<path d="M4.47791 7.32326C5.09998 7.32326 5.69657 7.07614 6.13644 6.63627C6.57631 6.1964 6.82342 5.59981 6.82342 4.97774C6.82342 4.35568 6.57631 3.75909 6.13644 3.31922C5.69657 2.87935 5.09998 2.63223 4.47791 2.63223C3.85584 2.63223 3.25925 2.87935 2.81938 3.31922C2.37951 3.75909 2.1324 4.35568 2.1324 4.97774C2.1324 5.59981 2.37951 6.1964 2.81938 6.63627C3.25925 7.07614 3.85584 7.32326 4.47791 7.32326ZM9.80862 7.32326C10.261 7.32326 10.6949 7.14354 11.0148 6.82363C11.3347 6.50373 11.5144 6.06984 11.5144 5.61743C11.5144 5.16502 11.3347 4.73113 11.0148 4.41123C10.6949 4.09132 10.261 3.9116 9.80862 3.9116C9.35621 3.9116 8.92232 4.09132 8.60242 4.41123C8.28251 4.73113 8.10279 5.16502 8.10279 5.61743C8.10279 6.06984 8.28251 6.50373 8.60242 6.82363C8.92232 7.14354 9.35621 7.32326 9.80862 7.32326ZM2.1324 8.17617C1.79309 8.17617 1.46767 8.31096 1.22775 8.55089C0.987818 8.79082 0.853027 9.11623 0.853027 9.45554V9.51951C0.853027 9.51951 0.853027 12.0143 4.47791 12.0143C8.10279 12.0143 8.10279 9.51951 8.10279 9.51951V9.45554C8.10279 9.11623 7.968 8.79082 7.72807 8.55089C7.48814 8.31096 7.16273 8.17617 6.82342 8.17617H2.1324ZM9.80862 11.1614C9.1877 11.1614 8.69642 11.0769 8.30707 10.9426C8.49129 10.6441 8.59706 10.3562 8.65676 10.1238C8.70028 9.95677 8.72784 9.78599 8.73907 9.61376C8.73992 9.5967 8.74077 9.58135 8.74077 9.56813L8.7412 9.55021V9.45554C8.74195 8.98343 8.56802 8.52773 8.2529 8.17617H11.7673C11.9021 8.17611 12.0356 8.20261 12.1601 8.25415C12.2847 8.30569 12.3978 8.38126 12.4931 8.47654C12.5885 8.57183 12.6641 8.68496 12.7157 8.80947C12.7673 8.93399 12.7938 9.06745 12.7938 9.20223C12.7938 9.20223 12.7938 11.1614 9.80862 11.1614Z" fill="#96999E"/>
</svg>
