<svg width="17" height="17" viewBox="0 0 17 17" fill="none" xmlns="http://www.w3.org/2000/svg">
<path d="M4.61583 0.974249C4.61583 0.814574 4.5524 0.661438 4.43949 0.548531C4.32658 0.435623 4.17345 0.372192 4.01377 0.372192C3.8541 0.372192 3.70096 0.435623 3.58805 0.548531C3.47514 0.661438 3.41171 0.814574 3.41171 0.974249V2.24258C2.25577 2.3349 1.49798 2.56127 0.940874 3.11918C0.382968 3.67628 0.156595 4.43487 0.0634766 5.59002H15.9915C15.8984 4.43407 15.672 3.67628 15.1141 3.11918C14.557 2.56127 13.7984 2.3349 12.6432 2.24178V0.974249C12.6432 0.814574 12.5798 0.661438 12.4669 0.548531C12.354 0.435623 12.2009 0.372192 12.0412 0.372192C11.8815 0.372192 11.7284 0.435623 11.6155 0.548531C11.5026 0.661438 11.4391 0.814574 11.4391 0.974249V2.1888C10.9053 2.17836 10.3065 2.17836 9.63297 2.17836H6.422C5.7485 2.17836 5.14965 2.17836 4.61583 2.1888V0.974249Z" fill="#5F5F60"/>
<path fill-rule="evenodd" clip-rule="evenodd" d="M0 8.60024C0 7.92674 8.97134e-09 7.32789 0.0104357 6.79407H16.0444C16.0548 7.32789 16.0548 7.92674 16.0548 8.60024V10.2057C16.0548 13.2329 16.0548 14.7468 15.114 15.6868C14.174 16.6277 12.66 16.6277 9.63291 16.6277H6.42194C3.3948 16.6277 1.88082 16.6277 0.940814 15.6868C-9.56943e-08 14.7468 0 13.2329 0 10.2057V8.60024ZM12.0411 10.2057C12.254 10.2057 12.4582 10.1211 12.6088 9.9706C12.7593 9.82006 12.8439 9.61588 12.8439 9.40298C12.8439 9.19008 12.7593 8.9859 12.6088 8.83536C12.4582 8.68481 12.254 8.60024 12.0411 8.60024C11.8282 8.60024 11.6241 8.68481 11.4735 8.83536C11.323 8.9859 11.2384 9.19008 11.2384 9.40298C11.2384 9.61588 11.323 9.82006 11.4735 9.9706C11.6241 10.1211 11.8282 10.2057 12.0411 10.2057ZM12.0411 13.4167C12.254 13.4167 12.4582 13.3321 12.6088 13.1816C12.7593 13.031 12.8439 12.8268 12.8439 12.6139C12.8439 12.401 12.7593 12.1969 12.6088 12.0463C12.4582 11.8958 12.254 11.8112 12.0411 11.8112C11.8282 11.8112 11.6241 11.8958 11.4735 12.0463C11.323 12.1969 11.2384 12.401 11.2384 12.6139C11.2384 12.8268 11.323 13.031 11.4735 13.1816C11.6241 13.3321 11.8282 13.4167 12.0411 13.4167ZM8.83016 9.40298C8.83016 9.61588 8.74559 9.82006 8.59505 9.9706C8.4445 10.1211 8.24032 10.2057 8.02742 10.2057C7.81452 10.2057 7.61034 10.1211 7.4598 9.9706C7.30925 9.82006 7.22468 9.61588 7.22468 9.40298C7.22468 9.19008 7.30925 8.9859 7.4598 8.83536C7.61034 8.68481 7.81452 8.60024 8.02742 8.60024C8.24032 8.60024 8.4445 8.68481 8.59505 8.83536C8.74559 8.9859 8.83016 9.19008 8.83016 9.40298ZM8.83016 12.6139C8.83016 12.8268 8.74559 13.031 8.59505 13.1816C8.4445 13.3321 8.24032 13.4167 8.02742 13.4167C7.81452 13.4167 7.61034 13.3321 7.4598 13.1816C7.30925 13.031 7.22468 12.8268 7.22468 12.6139C7.22468 12.401 7.30925 12.1969 7.4598 12.0463C7.61034 11.8958 7.81452 11.8112 8.02742 11.8112C8.24032 11.8112 8.4445 11.8958 8.59505 12.0463C8.74559 12.1969 8.83016 12.401 8.83016 12.6139ZM4.01371 10.2057C4.22661 10.2057 4.43079 10.1211 4.58134 9.9706C4.73188 9.82006 4.81645 9.61588 4.81645 9.40298C4.81645 9.19008 4.73188 8.9859 4.58134 8.83536C4.43079 8.68481 4.22661 8.60024 4.01371 8.60024C3.80081 8.60024 3.59663 8.68481 3.44609 8.83536C3.29554 8.9859 3.21097 9.19008 3.21097 9.40298C3.21097 9.61588 3.29554 9.82006 3.44609 9.9706C3.59663 10.1211 3.80081 10.2057 4.01371 10.2057ZM4.01371 13.4167C4.22661 13.4167 4.43079 13.3321 4.58134 13.1816C4.73188 13.031 4.81645 12.8268 4.81645 12.6139C4.81645 12.401 4.73188 12.1969 4.58134 12.0463C4.43079 11.8958 4.22661 11.8112 4.01371 11.8112C3.80081 11.8112 3.59663 11.8958 3.44609 12.0463C3.29554 12.1969 3.21097 12.401 3.21097 12.6139C3.21097 12.8268 3.29554 13.031 3.44609 13.1816C3.59663 13.3321 3.80081 13.4167 4.01371 13.4167Z" fill="#5F5F60"/>
</svg>
