<svg width="14" height="21" viewBox="0 0 14 21" fill="none" xmlns="http://www.w3.org/2000/svg">
<path d="M7 20.5C7 20.5 0 11.37 0 7.5C-1.36979e-08 6.58075 0.18106 5.6705 0.532843 4.82122C0.884626 3.97194 1.40024 3.20026 2.05025 2.55025C2.70026 1.90024 3.47194 1.38463 4.32122 1.03284C5.1705 0.68106 6.08075 0.5 7 0.5C7.91925 0.5 8.8295 0.68106 9.67878 1.03284C10.5281 1.38463 11.2997 1.90024 11.9497 2.55025C12.5998 3.20026 13.1154 3.97194 13.4672 4.82122C13.8189 5.6705 14 6.58075 14 7.5C14 11.37 7 20.5 7 20.5ZM7 9.5C7.53043 9.5 8.03914 9.28929 8.41421 8.91421C8.78929 8.53914 9 8.03043 9 7.5C9 6.96957 8.78929 6.46086 8.41421 6.08579C8.03914 5.71071 7.53043 5.5 7 5.5C6.46957 5.5 5.96086 5.71071 5.58579 6.08579C5.21071 6.46086 5 6.96957 5 7.5C5 8.03043 5.21071 8.53914 5.58579 8.91421C5.96086 9.28929 6.46957 9.5 7 9.5Z" fill="#5F5F60"/>
</svg>
