<svg width="39" height="39" viewBox="0 0 39 39" fill="none" xmlns="http://www.w3.org/2000/svg">
<g clip-path="url(#clip0_67_2634)">
<path d="M38.4375 19.6875C38.4375 9.19416 29.9308 0.6875 19.4375 0.6875C8.94416 0.6875 0.4375 9.19401 0.4375 19.6875C0.4375 29.1709 7.38556 37.0314 16.4688 38.4567V25.1797H11.6445V19.6875H16.4688V15.5016C16.4688 10.7397 19.3054 8.10938 23.6453 8.10938C25.7241 8.10938 27.8984 8.48047 27.8984 8.48047V13.1562H25.5027C23.1422 13.1562 22.4062 14.6209 22.4062 16.1235V19.6875H27.6758L26.8334 25.1797H22.4062V38.4567C31.4894 37.0314 38.4375 29.171 38.4375 19.6875Z" fill="#1877F2"/>
<path d="M26.8334 25.1797L27.6758 19.6875H22.4062V16.1235C22.4062 14.6207 23.1424 13.1562 25.5027 13.1562H27.8984V8.48047C27.8984 8.48047 25.7241 8.10938 23.6453 8.10938C19.3054 8.10938 16.4688 10.7397 16.4688 15.5016V19.6875H11.6445V25.1797H16.4688V38.4567C17.4508 38.6106 18.4434 38.6878 19.4375 38.6875C20.4316 38.6878 21.4242 38.6106 22.4062 38.4567V25.1797H26.8334Z" fill="white"/>
</g>
<defs>
<clipPath id="clip0_67_2634">
<rect width="38" height="38" fill="white" transform="translate(0.4375 0.6875)"/>
</clipPath>
</defs>
</svg>
