<svg width="56" height="48" viewBox="0 0 56 48" fill="none" xmlns="http://www.w3.org/2000/svg">
<path d="M56 15.5C56 33 30.0525 47.165 28.9475 47.75C28.6563 47.9067 28.3307 47.9887 28 47.9887C27.6693 47.9887 27.3437 47.9067 27.0525 47.75C25.9475 47.165 0 33 0 15.5C0.00463184 11.3906 1.63915 7.45077 4.54496 4.54496C7.45077 1.63915 11.3906 0.00463184 15.5 0C20.6625 0 25.1825 2.22 28 5.9725C30.8175 2.22 35.3375 0 40.5 0C44.6094 0.00463184 48.5492 1.63915 51.455 4.54496C54.3609 7.45077 55.9954 11.3906 56 15.5Z" fill="#F10375"/>
</svg>
