<svg width="23" height="23" viewBox="0 0 23 23" fill="none" xmlns="http://www.w3.org/2000/svg">
<path d="M9.59086 1C7.89175 1 6.2308 1.50385 4.81804 2.44782C3.40528 3.3918 2.30417 4.73351 1.65394 6.30328C1.00372 7.87306 0.833595 9.60039 1.16507 11.2669C1.49656 12.9333 2.31476 14.4641 3.51621 15.6655C4.71766 16.867 6.24841 17.6852 7.91487 18.0167C9.58133 18.3481 11.3087 18.178 12.8784 17.5278C14.4482 16.8776 15.7899 15.7764 16.7339 14.3637C17.6779 12.9509 18.1817 11.29 18.1817 9.59086C18.1816 7.31247 17.2764 5.12743 15.6654 3.51637C14.0543 1.9053 11.8693 1.00015 9.59086 1Z" stroke="#FF5C00" stroke-width="1.75" stroke-miterlimit="10"/>
<path d="M16.0002 16.0002L22 22" stroke="#FF5C00" stroke-width="1.75" stroke-miterlimit="10" stroke-linecap="round"/>
</svg>
