<svg width="15" height="15" viewBox="0 0 15 15" fill="none" xmlns="http://www.w3.org/2000/svg">
<path d="M5.33542 1.92151C5.33542 1.80841 5.29049 1.69994 5.21052 1.61996C5.13054 1.53999 5.02207 1.49506 4.90896 1.49506C4.79586 1.49506 4.68739 1.53999 4.60741 1.61996C4.52744 1.69994 4.48251 1.80841 4.48251 1.92151V2.81992C3.66371 2.88531 3.12694 3.04565 2.73233 3.44084C2.33715 3.83545 2.1768 4.37279 2.11084 5.19101H13.3932C13.3272 4.37222 13.1669 3.83545 12.7717 3.44084C12.3771 3.04565 11.8397 2.88531 11.0215 2.81935V1.92151C11.0215 1.80841 10.9766 1.69994 10.8966 1.61996C10.8166 1.53999 10.7082 1.49506 10.5951 1.49506C10.482 1.49506 10.3735 1.53999 10.2935 1.61996C10.2135 1.69994 10.1686 1.80841 10.1686 1.92151V2.78182C9.79047 2.77443 9.36629 2.77443 8.88923 2.77443H6.61479C6.13773 2.77443 5.71355 2.77443 5.33542 2.78182V1.92151Z" fill="#96999E"/>
<path fill-rule="evenodd" clip-rule="evenodd" d="M2.06592 7.32332C2.06592 6.84625 2.06592 6.42207 2.07331 6.04395H13.4307C13.4381 6.42207 13.4381 6.84625 13.4381 7.32332V8.46053C13.4381 10.6048 13.4381 11.6772 12.7717 12.343C12.1058 13.0094 11.0335 13.0094 8.88923 13.0094H6.61479C4.47057 13.0094 3.39817 13.0094 2.73233 12.343C2.06592 11.6772 2.06592 10.6048 2.06592 8.46053V7.32332ZM10.5951 8.46053C10.7459 8.46053 10.8905 8.40063 10.9971 8.29399C11.1038 8.18736 11.1637 8.04273 11.1637 7.89192C11.1637 7.74112 11.1038 7.59649 10.9971 7.48986C10.8905 7.38322 10.7459 7.32332 10.5951 7.32332C10.4442 7.32332 10.2996 7.38322 10.193 7.48986C10.0864 7.59649 10.0264 7.74112 10.0264 7.89192C10.0264 8.04273 10.0864 8.18736 10.193 8.29399C10.2996 8.40063 10.4442 8.46053 10.5951 8.46053ZM10.5951 10.735C10.7459 10.735 10.8905 10.6751 10.9971 10.5684C11.1038 10.4618 11.1637 10.3172 11.1637 10.1664C11.1637 10.0156 11.1038 9.87093 10.9971 9.76429C10.8905 9.65766 10.7459 9.59775 10.5951 9.59775C10.4442 9.59775 10.2996 9.65766 10.193 9.76429C10.0864 9.87093 10.0264 10.0156 10.0264 10.1664C10.0264 10.3172 10.0864 10.4618 10.193 10.5684C10.2996 10.6751 10.4442 10.735 10.5951 10.735ZM8.32062 7.89192C8.32062 8.04273 8.26071 8.18736 8.15408 8.29399C8.04744 8.40063 7.90281 8.46053 7.75201 8.46053C7.6012 8.46053 7.45658 8.40063 7.34994 8.29399C7.24331 8.18736 7.1834 8.04273 7.1834 7.89192C7.1834 7.74112 7.24331 7.59649 7.34994 7.48986C7.45658 7.38322 7.6012 7.32332 7.75201 7.32332C7.90281 7.32332 8.04744 7.38322 8.15408 7.48986C8.26071 7.59649 8.32062 7.74112 8.32062 7.89192ZM8.32062 10.1664C8.32062 10.3172 8.26071 10.4618 8.15408 10.5684C8.04744 10.6751 7.90281 10.735 7.75201 10.735C7.6012 10.735 7.45658 10.6751 7.34994 10.5684C7.24331 10.4618 7.1834 10.3172 7.1834 10.1664C7.1834 10.0156 7.24331 9.87093 7.34994 9.76429C7.45658 9.65766 7.6012 9.59775 7.75201 9.59775C7.90281 9.59775 8.04744 9.65766 8.15408 9.76429C8.26071 9.87093 8.32062 10.0156 8.32062 10.1664ZM4.90896 8.46053C5.05977 8.46053 5.2044 8.40063 5.31103 8.29399C5.41767 8.18736 5.47757 8.04273 5.47757 7.89192C5.47757 7.74112 5.41767 7.59649 5.31103 7.48986C5.2044 7.38322 5.05977 7.32332 4.90896 7.32332C4.75816 7.32332 4.61353 7.38322 4.5069 7.48986C4.40026 7.59649 4.34035 7.74112 4.34035 7.89192C4.34035 8.04273 4.40026 8.18736 4.5069 8.29399C4.61353 8.40063 4.75816 8.46053 4.90896 8.46053ZM4.90896 10.735C5.05977 10.735 5.2044 10.6751 5.31103 10.5684C5.41767 10.4618 5.47757 10.3172 5.47757 10.1664C5.47757 10.0156 5.41767 9.87093 5.31103 9.76429C5.2044 9.65766 5.05977 9.59775 4.90896 9.59775C4.75816 9.59775 4.61353 9.65766 4.5069 9.76429C4.40026 9.87093 4.34035 10.0156 4.34035 10.1664C4.34035 10.3172 4.40026 10.4618 4.5069 10.5684C4.61353 10.6751 4.75816 10.735 4.90896 10.735Z" fill="#96999E"/>
</svg>
