<svg width="35" height="33" viewBox="0 0 35 33" fill="none" xmlns="http://www.w3.org/2000/svg">
<path d="M26.1133 28.7408C23.8267 25.0198 22.6162 20.7378 22.6162 16.3704C22.6162 12.003 23.8267 7.721 26.1133 4" stroke="black" stroke-width="6.18519" stroke-linecap="round" stroke-linejoin="round"/>
<path d="M28.4022 29.7919C30.1102 29.7919 31.4948 28.4073 31.4948 26.6993C31.4948 24.9913 30.1102 23.6067 28.4022 23.6067C26.6942 23.6067 25.3096 24.9913 25.3096 26.6993C25.3096 28.4073 26.6942 29.7919 28.4022 29.7919Z" stroke="black" stroke-width="6.18519" stroke-linecap="round" stroke-linejoin="round"/>
<path d="M7.49713 28.7408C5.21052 25.0198 4 20.7378 4 16.3704C4 12.003 5.21052 7.721 7.49713 4" stroke="black" stroke-width="6.18519" stroke-linecap="round" stroke-linejoin="round"/>
<path d="M9.78693 29.7919C11.4949 29.7919 12.8795 28.4073 12.8795 26.6993C12.8795 24.9913 11.4949 23.6067 9.78693 23.6067C8.07894 23.6067 6.69434 24.9913 6.69434 26.6993C6.69434 28.4073 8.07894 29.7919 9.78693 29.7919Z" stroke="black" stroke-width="6.18519" stroke-linecap="round" stroke-linejoin="round"/>
</svg>
