<svg width="42" height="43" viewBox="0 0 42 43" fill="none" xmlns="http://www.w3.org/2000/svg">
<path d="M0.896523 20.9108C0.895539 24.4671 1.82479 27.9397 3.59174 31.0004L0.727539 41.4581L11.4297 38.652C14.3897 40.2634 17.7063 41.1078 21.0765 41.108H21.0854C32.2113 41.108 41.268 32.0545 41.2728 20.9267C41.2749 15.5344 39.1769 10.4639 35.3651 6.64913C31.5539 2.83467 26.4852 0.732869 21.0846 0.730408C9.95737 0.730408 0.901281 9.78338 0.896688 20.9108" fill="url(#paint0_linear_67_2898)"/>
<path d="M0.175547 20.9042C0.174398 24.5885 1.13695 28.1853 2.96691 31.3556L0 42.1882L11.0859 39.2815C14.1404 40.9469 17.5795 41.8249 21.0789 41.8263H21.0879C32.613 41.8263 41.9951 32.4471 42 20.9209C42.002 15.3349 39.8285 10.0821 35.8805 6.13069C31.932 2.17973 26.682 0.00229687 21.0879 0C9.56091 0 0.180141 9.37781 0.175547 20.9042ZM6.77742 30.8096L6.36349 30.1526C4.62345 27.3858 3.70502 24.1886 3.70634 20.9055C3.71011 11.3251 11.507 3.53063 21.0945 3.53063C25.7375 3.53259 30.1009 5.34253 33.3828 8.62641C36.6645 11.9106 38.4704 16.2763 38.4692 20.9196C38.4649 30.5 30.6679 38.2955 21.0879 38.2955H21.081C17.9617 38.2938 14.9025 37.4561 12.2345 35.8731L11.5995 35.4966L5.02097 37.2214L6.77742 30.8095V30.8096Z" fill="url(#paint1_linear_67_2898)"/>
<path d="M15.8612 12.1649C15.4698 11.2949 15.0578 11.2774 14.6855 11.2621C14.3807 11.249 14.0322 11.25 13.6841 11.25C13.3356 11.25 12.7695 11.381 12.2909 11.9036C11.8118 12.4266 10.4619 13.6905 10.4619 16.2612C10.4619 18.8321 12.3344 21.3165 12.5954 21.6655C12.8567 22.0138 16.2102 27.458 21.5212 29.5524C25.9351 31.293 26.8334 30.9468 27.7913 30.8595C28.7495 30.7726 30.8829 29.5959 31.3182 28.3758C31.7538 27.1558 31.7538 26.1101 31.6232 25.8915C31.4926 25.6738 31.1441 25.5431 30.6216 25.2819C30.0989 25.0205 27.53 23.7564 27.0511 23.582C26.572 23.4078 26.2237 23.3209 25.8753 23.8441C25.5268 24.3664 24.5262 25.5431 24.2212 25.8915C23.9165 26.2408 23.6115 26.2843 23.0891 26.023C22.5663 25.7608 20.8835 25.2097 18.887 23.4298C17.3337 22.0448 16.285 20.3344 15.9802 19.8112C15.6753 19.2889 15.9475 19.0057 16.2095 18.7453C16.4443 18.5112 16.7322 18.1352 16.9937 17.8302C17.2543 17.525 17.3412 17.3073 17.5155 16.9588C17.6899 16.61 17.6026 16.3049 17.4721 16.0435C17.3412 15.7822 16.3258 13.198 15.8612 12.1649Z" fill="white"/>
<defs>
<linearGradient id="paint0_linear_67_2898" x1="2027.99" y1="4073.5" x2="2027.99" y2="0.730408" gradientUnits="userSpaceOnUse">
<stop stop-color="#1FAF38"/>
<stop offset="1" stop-color="#60D669"/>
</linearGradient>
<linearGradient id="paint1_linear_67_2898" x1="2100" y1="4218.82" x2="2100" y2="0" gradientUnits="userSpaceOnUse">
<stop stop-color="#F9F9F9"/>
<stop offset="1" stop-color="white"/>
</linearGradient>
</defs>
</svg>
